<svg width="141" height="53" xmlns="http://www.w3.org/2000/svg"><g fill="#FFF" fill-rule="nonzero"><path d="M3.296 49v-3.904h2.976c2.528 0 4.192-1.296 4.192-3.648 0-2.352-1.664-3.648-4.192-3.648H1.184V49h2.112zm2.912-5.792H3.296v-3.52h2.912c1.472 0 2.144.704 2.144 1.76s-.672 1.76-2.144 1.76zM14.416 49V37.8h-2.112V49h2.112zm10.144 0v-1.888h-5.664v-2.96h5.168v-1.888h-5.168v-2.576h5.616V37.8h-7.728V49h7.776zm9.872 0c3.504 0 6.096-1.84 6.096-5.6s-2.592-5.6-6.096-5.6h-3.376V49h3.376zm.144-1.952h-1.408v-7.296h1.408c2.272 0 3.808 1.216 3.808 3.648 0 2.432-1.536 3.648-3.808 3.648zm11.328 2.176c1.744 0 2.944-.72 3.728-2.32l-1.504-.864c-.48.944-1.12 1.456-2.192 1.456-1.184 0-2.048-.768-2.176-1.984h6.112v-.704c0-2.32-1.6-3.968-3.872-3.968-2.304 0-4.176 1.68-4.176 4.192 0 2.512 1.872 4.192 4.08 4.192zM48 43.976h-4.208c.288-.896 1.088-1.6 2.144-1.6 1.12 0 1.872.608 2.064 1.6zm6.736 5.248c1.968 0 3.136-1.152 3.136-2.64 0-1.328-.8-2.064-2.656-2.448-1.248-.256-1.872-.608-1.872-1.12 0-.496.544-.704 1.2-.704.816 0 1.456.528 1.792 1.392l1.456-.864c-.64-1.344-1.552-2-3.28-2-1.552 0-2.96.816-2.96 2.304 0 1.44 1.216 2.176 2.768 2.48 1.168.224 1.696.496 1.696 1.024 0 .576-.624.88-1.248.88-1.024 0-1.712-.72-2.048-1.712l-1.616 1.024c.528 1.232 1.648 2.384 3.632 2.384zm6.672-9.312V37.8H59.2v2.112h2.208zM61.312 49v-7.936h-2.016V49h2.016zm5.696 3.488c2.368 0 3.968-1.328 3.968-4.032v-7.392H68.96v.864c-.48-.704-1.28-1.088-2.24-1.088-2.048 0-3.84 1.648-3.84 4.016 0 2.368 1.728 4.016 3.824 4.016 1.12 0 1.856-.528 2.256-1.184v1.024c0 1.552-.752 2.176-1.952 2.176-1.12 0-1.76-.368-1.76-.896 0-.192.032-.368.096-.544l-1.92-.592a1.869 1.869 0 00-.224.912c0 1.696 1.44 2.72 3.808 2.72zm-.08-5.376c-1.12 0-2.096-.8-2.096-2.256 0-1.456.976-2.256 2.096-2.256s2.144.8 2.144 2.256c0 1.456-1.024 2.256-2.144 2.256zM74.896 49v-4.032c0-1.328.784-2.24 1.84-2.24 1.12 0 1.616.656 1.616 1.696V49h2.016v-5.408c0-1.648-1.088-2.752-2.784-2.752-1.152 0-2.096.592-2.688 1.504v-1.28H72.88V49h2.016zm16.304.224c2.608 0 4.176-1.616 4.176-3.44 0-1.888-1.216-2.928-3.664-3.44-1.872-.384-2.704-.88-2.704-1.744 0-.8.88-1.168 1.872-1.168 1.312 0 2.208.704 2.64 1.984l1.664-.96c-.704-1.92-2.16-2.88-4.256-2.88-2.336 0-3.936 1.216-3.936 3.072 0 1.904 1.472 2.96 3.504 3.36 1.808.352 2.768.816 2.768 1.856 0 .896-.816 1.504-2.08 1.504-1.696 0-2.528-1.008-2.832-2.672l-1.856.944c.416 2.048 1.92 3.584 4.704 3.584zm7.28 3.152c1.232 0 2.064-.544 2.624-1.936l3.776-9.376h-2.288l-1.952 5.152-2.048-5.152h-2.288l3.264 8-.256.704c-.192.528-.448.752-.896.752-.272 0-.512-.08-.72-.192l-.32 1.872c.288.112.72.176 1.104.176zm10.752-3.152c1.968 0 3.136-1.152 3.136-2.64 0-1.328-.8-2.064-2.656-2.448-1.248-.256-1.872-.608-1.872-1.12 0-.496.544-.704 1.2-.704.816 0 1.456.528 1.792 1.392l1.456-.864c-.64-1.344-1.552-2-3.28-2-1.552 0-2.96.816-2.96 2.304 0 1.44 1.216 2.176 2.768 2.48 1.168.224 1.696.496 1.696 1.024 0 .576-.624.88-1.248.88-1.024 0-1.712-.72-2.048-1.712L105.6 46.84c.528 1.232 1.648 2.384 3.632 2.384zm7.712 0c.464 0 .992-.096 1.344-.224l-.192-1.664c-.16.048-.368.096-.672.096-.608 0-1.008-.304-1.008-1.12v-3.616h1.728v-1.632h-1.728V38.92H114.4v2.144h-1.232v1.632h1.232v4c0 1.952 1.168 2.528 2.544 2.528zm6.368 0c1.744 0 2.944-.72 3.728-2.32l-1.504-.864c-.48.944-1.12 1.456-2.192 1.456-1.184 0-2.048-.768-2.176-1.984h6.112v-.704c0-2.32-1.6-3.968-3.872-3.968-2.304 0-4.176 1.68-4.176 4.192 0 2.512 1.872 4.192 4.08 4.192zm2.096-5.248H121.2c.288-.896 1.088-1.6 2.144-1.6 1.12 0 1.872.608 2.064 1.6zM130.896 49v-4.448c0-1.28.72-1.952 1.504-1.952.88 0 1.28.56 1.28 1.52V49h2.016v-4.416c0-1.312.64-1.984 1.536-1.984.88 0 1.248.56 1.248 1.488V49h2.016v-5.552c0-1.568-.912-2.608-2.56-2.608-.976 0-1.952.432-2.528 1.36-.336-.848-1.04-1.36-2.208-1.36-.832 0-1.712.368-2.304 1.28v-1.056h-2.016V49h2.016zM12.782.6a1.546 1.546 0 011.745 0 37.735 37.735 0 013.864 2.84s.335.237.344-.164a6.386 6.386 0 01.09-1.547.692.692 0 01.642-.455s1.517.077 2.481.21c.431.058.767.41.813.85 0 0 .62 4.214.758 5.734 0 0 .12.773 1.219 2.084 0 0 2.231 3.185 2.49 3.795 0 0 .518 1.1-.598 1.25 0 0-2.035.21-2.232.256a.516.516 0 00-.446.564s-.107 7.33-.634 10.852c0 0-.138 1.397-.892 1.365 0 0-2.093-.068-2.58-.054 0 0-.21 0-.178-.287 0 0 1.066-11.43.343-17.209 0 0-.03-.746-.589-.91 0 0-.508-.21-.995.455a18.373 18.373 0 00-3.311 10.315s-.058 1.82.214 2.276c0 0 .17.318 1.035.39l1.098.151s.201 0 .183.273c0 0-.25 3.354-.321 3.95-.004.135-.032.27-.08.396 0 0-.04.113-.384.1 0 0-4.838-.037-5.383 0 0 0-.227 0-.276-.123-.05-.123-.335-4.327-.326-4.924a.297.297 0 01.17-.29 2.974 2.974 0 001.338-2.18c.06-.637.068-1.278.027-1.916 0 0 .179-6.43.223-7.462 0 0 .036-.35-.41-.415a.408.408 0 00-.314.052.423.423 0 00-.186.262v.037c0 .036-.312 4.24-.254 5.915 0 0 .107 1.097-.639 1.12 0 0-.723.109-.758-.806 0 0 .053-4.122.232-6.16a.452.452 0 00-.897-.087.102.102 0 000 .036s-.313 3.945-.255 6.03c0 0 .09 1.01-.7.973 0 0-.66.077-.697-.82 0 0 .179-5.646.228-6.083a.451.451 0 00-.397-.428h-.045a.448.448 0 00-.477.378.13.13 0 000 .041s-.295 6.753-.255 8.737c0 0-.026 2.038 1.45 2.866 0 0 .22.128.224.323 0 0 .165 3.581.317 4.737 0 0 .053.278-.188.278l-3.717.104a.77.77 0 01-.759-.737 86.488 86.488 0 01-.687-11.444.581.581 0 00-.446-.623s-1.902-.178-2.361-.296a.807.807 0 01-.482-1.187A38.66 38.66 0 0112.78.6zM39.076 10.617H35.4c-1.19 0-1.19 0-1.44 1.477s-.246 1.53.845 1.53h2.186L35.75 21.17c-.3 1.686-.992 2.85-3.13 3.533-.545.157-.692.366-.692.632.038.424.156.836.348 1.21.345.898.546 1.06.84 1.06a5.354 5.354 0 001.047-.214c3.027-1.054 4.27-3.533 4.766-6.487l1.39-8.492c.247-1.795.247-1.795-1.242-1.795M51.765 10.617c-1.426 0-1.426 0-1.618 1.261l-1.027 6.55c-.287 1.914-.762 3.02-2.521 3.02s-2.328-1.106-2.041-2.82l.997-6.246c.286-1.765.235-1.765-1.237-1.765s-1.472 0-1.665 1.211l-1.044 6.55c-.616 3.728 1.57 6.042 4.66 6.042 3.467 0 5.226-1.66 5.795-5.588l1.049-6.5c.235-1.715.14-1.715-1.331-1.715M59.734 21.433c1.186-.05 1.826-.602 1.826-1.155 0-.706-.84-.955-1.973-1.308-2.222-.707-4.243-1.509-4.243-3.923 0-2.866 2.319-4.429 5.23-4.429 1.17-.008 2.34.043 3.505.154.787.1.987.349.738 1.608-.25 1.259-.542 1.359-1.231 1.309-.84-.05-1.928-.154-3.208-.154-1.48 0-1.924.557-1.924 1.06 0 .652.59 1.005 1.973 1.408 2.564.752 4.243 1.812 4.243 4.076 0 2.668-1.924 4.226-5.034 4.325a24.274 24.274 0 01-4.443-.249c-.991-.154-1.04-.154-.791-1.612.244-1.305.244-1.409 1.182-1.305 1.374.177 2.76.244 4.145.2M75.67 10.617h-8.166c-1.157 0-1.157 0-1.4 1.474-.245 1.474-.192 1.47.821 1.47h2.659l-1.501 9.088c-.287 1.77-.24 1.77 1.257 1.77 1.401 0 1.449 0 1.645-1.263l1.544-9.582h2.563c1.157 0 1.157 0 1.4-1.47.244-1.468.24-1.473-.822-1.473M91.085 13.57c1.135 0 1.135 0 1.373-1.476.24-1.477.235-1.477-.806-1.477h-5.734c-2.04 0-1.988 0-2.32 2.192l-1.469 9.217c-.38 2.394-.332 2.394 1.707 2.394h5.593c1.186 0 1.135 0 1.374-1.426.239-1.426.235-1.477-.806-1.477h-4.838l.38-2.65h4.027c1.092 0 1.092 0 1.28-1.376.188-1.376.188-1.426-1.28-1.426h-3.554l.38-2.5 4.693.005zM97.199 18.435l1.915-4.364c.15-.356.15-.356.394-.356.243 0 .248 0 .296.407l.589 4.313h-3.194zm5.206-6.09c-.292-1.728-.292-1.728-2.654-1.728-2.212 0-2.163 0-2.849 1.421l-4.963 10.71c-.739 1.521-.588 1.672 1.225 1.672 1.43 0 1.43 0 2.017-1.37l.783-1.828h4.818l.243 1.827c.2 1.37.248 1.37 1.672 1.37 1.624 0 1.77-.1 1.473-1.777l-1.765-10.298zM115.088 10.617h-8.21c-1.16 0-1.16 0-1.4 1.474-.239 1.474-.195 1.47.818 1.47h2.656l-1.495 9.088c-.292 1.77-.244 1.77 1.256 1.77 1.4 0 1.448 0 1.64-1.263l1.547-9.582h2.557c1.161 0 1.161 0 1.4-1.47.24-1.468.292-1.473-.77-1.473"/></g></svg>
