<svg viewBox="0 0 64 64" fill="none" xmlns="http://www.w3.org/2000/svg">
    <path d="m36 8.5 20.6 4s5.4 2.4 4 6.8c-1.5 4.3-7 18-7 18s-2.8 5.1-6.7 4.4L11.5 35S8 33.2 9.3 29.6L15.7 11c1.4-2 3.6-3.4 6-3.6a68 68 0 0 1 14.2 1Z" fill="#FFD9B2"/>
    <path d="M26.4 14.5s3 1.2 2.2 3c-.9 2-3 3.1-3.9 1.7-.8-1.5-2.5-3.8-1.6-4.4.9-.6 3.3-.3 3.3-.3ZM37.8 16.6s3 1.2 2.2 3c-.9 2-3 3.1-3.9 1.7-.8-1.4-2.4-3.8-1.6-4.4.9-.6 3.3-.3 3.3-.3ZM49.8 18.8s3 1.1 2.2 3c-.8 1.9-3 3-3.9 1.6-.8-1.4-2.5-3.8-1.6-4.4.9-.6 3.3-.2 3.3-.2ZM40.7 28.4s3 1.2 2.2 3c-1 2-3 3.1-3.9 1.7-.9-1.5-2.5-3.8-1.6-4.4.9-.6 3.3-.3 3.3-.3ZM29 26.3s3 1.2 2.2 3c-.9 2-3 3.1-3.9 1.7-.8-1.5-2.5-3.8-1.6-4.4.9-.6 3.3-.3 3.3-.3Z" fill="#fff"/>
    <path d="m11.5 19-2 5.7C9 26.5 8.4 28.3 8 30.1c-.7 3.1.9 5.3 4 6 3.4.9 7 1.3 10.4 2 3.7.7 7.3 1.3 11 1.8 1.2.2 1.2-1.8 0-2-6.5-.8-12.8-2.3-19.2-3.4a8 8 0 0 1-3.5-1c-1.4-1-.8-2.8-.3-4.2l3.1-9.8c.4-1.2-1.5-1.8-2-.5Z" fill="#4C4C4C"/>
    <path d="M33.2 40c3.8.7 7.7 1.7 11.5 2.2 3.3.5 6.4 0 8.6-2.6 2.2-2.6 3-6.3 4.2-9.5 1.1-3.3 2.4-6.4 3.4-9.7a1 1 0 1 0-2-.5c-.8 2.9-1.9 5.7-3 8.5-1 2.9-1.8 6.3-3.5 9a6 6 0 0 1-3.6 2.8c-1.6.3-3.2.2-4.8-.2l-10.3-2c-1.3-.2-1.8 1.7-.6 2Z" fill="#4C4C4C"/>
    <path d="M12.2 22.7c1.2-3.5 2.6-6.8 3.9-10.2.7-2 1.7-3.8 3.8-4.5 1.8-.4 3.8-.4 5.7.1l26.9 4.4c1.9.3 4.4.4 5.8 2 1.8 1.9.8 4.8.1 7-.4 1.2 1.6 1.7 2 .5.6-2.1 1.3-4.4.7-6.6-.6-1.8-2-3.3-3.8-3.9-2.2-.7-4.6-1.1-7-1.3l-8-1.3-15.6-2.6c-4-.7-8.5-1.3-11.1 2.6a175.3 175.3 0 0 0-5.3 13.2c-.5 1.3 1.5 1.8 1.9.6Z" fill="#4C4C4C"/>
    <path d="M26.2 12.8c-.7-.1-1.5 0-2.2.2-.7.3-1.2.7-1.6 1.3-.6.7-.8 1.7-.7 2.6.2.8.5 1.5 1 2.2 1.1 1.3 3 1.8 4.6 1.3a4 4 0 0 0 2.6-4c-.1-2-1.8-3.5-3.8-3.6a1 1 0 1 0 0 2h.3c.1 0-.3 0 0 0l.3.1c.2 0-.2 0 0 0l.2.1.1.1s.2.2.1 0l.3.4c.2 0 0 0 0 0l.1.1.2.4c0-.2 0 0 0 0l.1.3s0 .2 0 0v.8l-.1.2v.1l-.3.4c0 .1 0 0 0 0l-.1.1-.2.2-.4.3c-.1 0 .2-.1 0 0h-.2l-.4.1H25.5c.1 0 .1 0 0 0h-.4l-.1-.1h-.1l-.3-.3c.1.1 0 0 0 0l-.3-.2s-.2-.3 0-.1c-.2-.1-.3-.3-.3-.4l-.1-.2V17l-.1-.3-.1-.3v-.5c-.1.2 0-.1 0-.1l.2-.3.3-.4c0 .1-.2.2 0 0h.1c0-.1 0-.2 0 0l.1-.1.1-.1h.1l.3-.1h.2c.2 0-.2 0 0 0h1.2a1 1 0 1 0 0-2ZM47.1 17.7a3.6 3.6 0 0 0-2.3 4.2c.4 2 2.3 3.1 4.2 3.3 1.9.3 3.7-.8 4.5-2.6.7-2-1-4.4-2.8-5.2-.8-.3-1.7-.3-2.5 0-.9.1-1.7.5-2.3 1a1 1 0 0 0 0 1.4 1 1 0 0 0 1.4 0c.1-.1 0 0 0 0l.4-.2c.2-.1-.3 0 0 0h.1l.5-.2.8-.2H50c.2.2-.2 0 .1 0l.8.7a2.8 2.8 0 0 1 .7 2c0-.2 0 0 0 0v.2c0-.2 0 0 0 0l-.2.2c-.1.3.2 0 0 .1l-.1.1-.2.2H51l-.2.2h-.2c-.2.2 0 0 0 0l-.5.2H50c-.3.1.1 0-.1 0H48.9s.2 0 0 0h-.5l-.3-.1c-.1 0 .1 0 0 0l-.5-.3s-.2-.2-.1 0l-.1-.2-.4-.3c.1.1 0 0 0-.1l-.1-.3-.1-.3v-.2c0 .3 0 0 0 0V21c0-.1 0-.2 0 0v-.6c.1-.2 0 .2 0 0l.2-.2.1-.2.1-.1.1-.1c.1-.1.1-.1 0 0l.2-.1.1-.1c.1 0 .1 0 0 0h.2a1 1 0 0 0 .7-1.3 1 1 0 0 0-1.3-.7ZM35.6 15.2a3.7 3.7 0 0 0-2.3 4.2c.4 2 2.3 3.1 4.2 3.3 1.9.3 3.7-.8 4.5-2.6.7-2-.9-4.4-2.8-5.2-.8-.2-1.7-.2-2.5 0-.9.1-1.6.5-2.3 1a1 1 0 1 0 1.4 1.4c.2-.1 0 0 0 0l.4-.2c-.3.1 0 0 .2 0l.4-.2.5-.1h.2s.2 0 0 0h1.1c.2.1-.2 0 .1 0l.8.7a2.8 2.8 0 0 1 .7 1.9V19.7c0-.2 0 0 0 0l-.2.2c-.1.2.2-.1 0 0l-.1.2-.2.2h-.1l-.2.1-.2.2c-.2 0 0 0 0 0l-.5.1h-1.1s.2 0 0 0l-.5-.1-.2-.1h-.2l-.4-.3s-.2-.2-.1 0L36 20l-.4-.3c.2.1 0 0 0-.1l-.1-.3-.1-.3v-.2c0 .3 0 0 0 0v-.3s0-.2 0 0l.1-.5c0-.2-.1.1 0-.1l.1-.2.1-.2.1-.1.1-.1c.1-.1.1-.1 0 0l.2-.1.1-.1c.1 0 .1 0 0 0h.2a1 1 0 1 0-.5-2h-.4ZM38 27.4a3.7 3.7 0 0 0-2.4 4.3c.4 2 2.3 3.1 4.2 3.3 1.9.2 3.7-.8 4.5-2.6.7-2-1-4.5-2.8-5.2-.8-.3-1.7-.3-2.5 0-.9.1-1.6.4-2.3 1a1 1 0 1 0 1.4 1.4c.1-.1 0 0 0 0h.1l.3-.2c.2-.1-.2 0 0 0h.1l.5-.2.9-.2H40.9c.2.1-.2 0 0 0l.9.7c.4.4.6 1 .7 1.7v.5c0-.2 0 0-.1 0l-.1.2c-.2.2.1-.1 0 0l-.2.2-.2.2c.1-.1-.1 0 0 0l-.3.1-.2.2c-.2 0 0 0 0 0l-.4.1h-.3c-.3.1.2 0-.1 0H39.7s.2 0 0 0a4 4 0 0 1-.5 0l-.2-.1-.1-.1-.5-.2v-.1l-.2-.1-.3-.4c0 .1 0 0 0 0l-.2-.3c-.1-.2 0 0 0 0l-.1-.3v-.5c0-.1 0-.3 0 0l.1-.6c0-.2 0 .2 0 0l.1-.3.2-.1c0-.1 0 0 0 0v-.2h.2c0-.1 0-.1 0 0l.1-.2h.2l.1-.1a1 1 0 0 0 .7-1.2 1 1 0 0 0-1.2-.7h-.2ZM26 25a3.7 3.7 0 0 0-2.3 4.3c.4 2 2.4 3 4.2 3.3 2 .2 3.8-.9 4.5-2.6.8-2.1-.8-4.5-2.8-5.3-.8-.2-1.7-.2-2.5 0s-1.6.5-2.3 1a1 1 0 1 0 1.4 1.4c.2 0 0 0 0 0h.2l.2-.2c-.2.1.2 0 .2 0l.5-.2h.7s.2 0 0 0h.8c.3 0-.2-.1 0 0h.3c.1 0-.2-.1 0 0 .4.1.6.3.8.6a2.8 2.8 0 0 1 .8 2c0-.2 0 0 0 0l-.1.2c0-.2 0 0 0 0l-.1.2-.1.1-.1.1-.2.2H30l-.2.2h-.2l-.5.2H28s.2 0 0 0h-.4l-.3-.1h-.1c-.2 0-.3-.2-.5-.3 0 0-.2-.1 0 0l-.2-.2-.3-.3c0 .1 0 0 0 0l-.2-.4-.1-.3V28.3s0-.2 0 0l.1-.6c0-.1 0 .2 0 0l.1-.2.1-.2.2-.1V27c.2-.1.2-.1 0 0l.2-.1.1-.1c.1 0 .1 0 0 0h.2a1 1 0 1 0-.8-1.9Z" fill="#4C4C4C"/>
    <path d="M27 8c.3-.3 28.8 4 28.8 4s4.9.4 4.5 5" stroke="#4C4C4C"/>
    <path d="M37.1 23 56 32.6s4.4 3.9 1.8 7.7C55.1 44 46 55.6 46 55.6s-4 4.2-7.6 2.3L6 41.7s-2.8-2.8-.5-6l11.4-16a8.4 8.4 0 0 1 6.8-1.8C28 18.5 37 23 37 23Z" fill="#FFAB59"/>
    <path d="M26.3 26.1s2.6 2 1.2 3.6c-1.4 1.5-3.7 2-4.1.4-.5-1.6-1.4-4.3-.4-4.6 1-.3 3.3.6 3.3.6ZM36.6 31.4s2.6 2 1.3 3.5c-1.4 1.6-3.8 2.1-4.2.5-.4-1.7-1.3-4.4-.3-4.7 1-.3 3.3.7 3.3.7ZM47.5 36.7s2.6 2 1.3 3.6c-1.4 1.5-3.8 2-4.2.4-.4-1.6-1.3-4.3-.3-4.6 1-.3 3.2.6 3.2.6ZM36 43.5s2.7 2 1.3 3.5c-1.4 1.6-3.7 2.1-4.2.5-.4-1.7-1.3-4.4-.3-4.7 1-.3 3.3.7 3.3.7ZM25.4 38.2s2.6 2 1.2 3.5c-1.3 1.6-3.7 2.1-4.1.5-.5-1.7-1.3-4.4-.3-4.7 1-.3 3.2.7 3.2.7Z" fill="#fff"/>
    <path d="M10.7 26.2c-2.2 3.1-4.6 6.2-6.5 9.5a4.7 4.7 0 0 0 1.8 7c3 1.8 6.4 3.2 9.5 4.8 3.1 1.6 6.6 3.4 10 4.8 1.1.5 2.1-1.2 1-1.7C20.4 48 14.7 44.8 9 42a8.8 8.8 0 0 1-3.3-2c-1-1.4 0-3 .8-4.1l5.9-8.7c.7-1-1-2-1.7-1Z" fill="#4C4C4C"/>
    <path d="M25.6 52.4c3.5 1.8 7 3.8 10.6 5.4 3.1 1.4 6.3 1.8 9.2-.4 2.8-2 4.3-5 6.3-7.7s4.2-5.4 6-8.3c.7-1.1-1-2.1-1.7-1-1.6 2.5-3.5 5-5.3 7.4C49 50.2 47.3 53 45 55a6.2 6.2 0 0 1-4.2 1.9 11 11 0 0 1-4.8-1.5c-3.2-1.5-6.3-3.2-9.4-4.8-1.1-.6-2.1 1.1-1 1.7Z" fill="#4C4C4C"/>
    <path d="m10.4 30 6.5-8.8c1.3-1.6 2.8-3.1 5-3.2 2 0 4 1 5.8 2l24.4 11.6c1.7.9 4.3 1.7 5 3.7.8 2.4-.9 4.7-2 6.5-.8 1 1 2 1.6 1 1.3-1.8 2.5-3.7 2.6-5.9 0-2-.8-3.8-2.4-4.9-2-1.3-4-2.4-6.2-3.3l-7-3.3-14-6.8c-4-1.8-8.3-4-12.1-.9A192.3 192.3 0 0 0 8.8 29c-.8 1 1 2 1.7 1h-.1Z" fill="#4C4C4C"/>
    <path d="M26.8 24.5c-.7-.4-1.6-.6-2.5-.6-.7 0-1.4.4-2 .9-.7.5-1.1 1.3-1.2 2.2-.1.9 0 1.7.4 2.5a4.1 4.1 0 0 0 3.9 2.5 4 4 0 0 0 3.7-3c.4-2-.7-4-2.6-4.6a1 1 0 0 0-.6 2h.2l.4.2c-.2-.1 0 0 0 0l.1.2.2.1c.1.2 0 0 0 0l.2.5s0 .1 0 0v.1l.1.2c0 .1 0 .3 0 0v.5c0 .1 0-.1 0 0v.2l-.2.3c.1-.1 0 0 0 0a2 2 0 0 1-.2.4c0 .2.1 0 0 0l-.3.4c0-.1-.1 0-.2 0l-.2.2c-.1 0 .2 0 0 0l-.4.1c-.3 0 0 0 0 0H25c.2 0 0 0 0 0h-.4s-.3-.1-.1 0l-.5-.2-.1-.1c.1 0 0 0 0 0l-.4-.4s.1.2 0 0l-.1-.2-.1-.2s-.1-.2 0 0l-.1-.4-.1-.3s0-.2 0 0v-.9c0-.1 0 .2 0 0V27c0 .1 0 0 0 0l.1-.2.2-.2.3-.3.2-.1h.1c.2-.2-.2 0 0 0l.3-.1c.2 0-.1 0 0 0h.5l1 .2a1 1 0 1 0 1-1.7v-.1ZM45.2 35c-2 .1-3.4 1.8-3.4 3.7.2 2 1.5 3.6 3.4 4.2 1.8.6 3.7 0 4.8-1.5 1.2-1.9.3-4.5-1.3-5.8-.7-.4-1.6-.6-2.4-.6-.8-.1-1.7 0-2.4.3a1 1 0 1 0 1 1.8c.1-.1-.3 0 0 0h.3s.2 0 0 0H46.6c.3 0-.1 0 0 0l.8.1c.2.1 0 0 0 0v.1l.2.1h.1l.2.3s.2.2.1 0l.3.5V38.5l.3.6v.7c0 .1 0 .1 0 0v.1a1.6 1.6 0 0 1-.3.6c.1-.1 0 0 0 0l-.2.2c-.1.1.1-.1 0 0l-.4.2c-.2.1.2 0 0 0h-.5s-.2.1 0 0h-1.4s-.3-.1-.2 0c.1.1-.1 0-.1 0l-.2-.2-.2-.1-.2-.1-.1-.1-.2-.2-.1-.2c-.3-.2 0 .1 0 0a4.3 4.3 0 0 1-.4-.6V39c-.1-.2 0 .1 0 0v-1l.2-.3s.2-.2 0 0l.2-.2.2-.2h.1l.2-.1s0-.1 0 0H45.3c.1 0 .1 0 0 0h.2a1 1 0 0 0 0-2l-.3-.2ZM35 29.3c-2 .1-3.6 1.8-3.5 3.8.1 2 1.5 3.6 3.4 4.1 1.7.6 3.7 0 4.8-1.5 1.2-1.8.3-4.5-1.3-5.7-.8-.4-1.6-.7-2.4-.7-.8-.1-1.7 0-2.5.4a1 1 0 0 0-.4 1.3 1 1 0 0 0 1.4.4c.2-.1-.2 0 0 0H34.8c.2-.1-.2 0 0 0H36.3c-.2 0 0 0 0 0l.8.1c.2.1 0 0 0 0l.2.2c-.1-.1 0 0 .1 0l.2.2.1.1.3.5s0 .3 0 0v.3c.2.2.2.4.2.6v.6c0 .1 0 .2 0 0v.2a1.5 1.5 0 0 1-.2.6c0-.2 0 0 0 0l-.2.1c-.1.2.1 0 0 0l-.4.3c-.2 0 .2 0 0 0h-1.9s-.3-.1-.2 0l-.1-.1-.4-.1-.1-.1-.2-.1-.2-.1-.1-.2-.2-.2c-.2-.2 0 .1 0 0l-.3-.4V33.6l-.1-.3c0-.2 0 .2 0 0v-.4l.1-.5v-.1l.2-.2c0-.1.1-.3 0-.1l.2-.2.1-.1.1-.1.2-.1c.1 0 .1 0 0 0h.5a1 1 0 1 0 0-2v-.2ZM33.7 41.8c-2 0-3.5 1.7-3.5 3.7.2 2 1.5 3.6 3.4 4.1 1.8.7 3.7 0 4.9-1.4 1.1-1.8.3-4.5-1.4-5.7-.7-.5-1.5-.7-2.4-.7-.8-.1-1.6 0-2.4.3a1 1 0 0 0 1 1.8c.1-.1-.3 0 0 0H35c.3 0-.1 0 0 0l.8.1c.3.1 0 0 0 0h.1l.2.2c-.1-.1 0 0 0 0l.2.2.1.2a3.3 3.3 0 0 1 .4.5v.2l.2.6v.8l-.1.4-.2.2c.1-.2 0 0 0 0l-.1.1c-.2.2 0 0 0 0l-.4.3c-.2 0 .2 0 0 0h-1.5c.3 0 0 0 0 0h-.5l-.1-.1-.2-.1-.2-.1-.2-.1-.1-.1-.2-.1-.1-.2-.2-.2c-.2-.2 0 .1 0 0l-.2-.4-.1-.2V46l-.1-.3s0 .1 0 0v-.4l.1-.5v-.1l.2-.2s.1-.3 0-.2l.2-.1.1-.1c.1-.1.1-.1 0 0L33 44h.1c.1 0 .1 0 0 0l.2-.2h.2c.1 0 0 0 0 0h.2a1 1 0 1 0 0-2ZM23 36c-2 .1-3.5 1.8-3.4 3.8.1 2 1.5 3.6 3.4 4.1 1.8.7 3.7 0 4.8-1.4 1.2-1.9.3-4.5-1.3-5.8-.7-.4-1.5-.6-2.4-.7-.8 0-1.7 0-2.5.4a1 1 0 0 0 1 1.7c.2 0-.2 0 0 0H22.9c.2 0-.2 0 0 0H24.4c-.2 0 0 0 0 0 .2 0 .5 0 .7.2.3 0 0 0 0 0H25.4c-.1 0 0 .1 0 .2l.3.1v.2l.3.4.1.1v.2l.2.6v.7a1.6 1.6 0 0 1-.2.7c0-.2 0 0 0 0l-.2.1c-.2.2.1 0 0 0l-.4.2c-.2.2.2 0 0 0l-.3.1H24.5a4 4 0 0 1-.4 0H24l-.3.1h-.2s-.3-.1-.2 0h-.1l-.2-.3h-.2l-.2-.2-.1-.1-.2-.2-.2-.2c-.2-.2 0 0 0 0a2 2 0 0 1-.3-.4v-.4l-.2-.2v-.4s0-.3 0 0l.1-.6c0 .2 0 0 0 0l.2-.3s.1-.2 0-.1l.2-.2h.1c.1-.1.1-.2 0 0l.2-.2h.1l.2-.1h.1c.2 0 .2 0 0 0h.2a1 1 0 1 0 0-2V36Z" fill="#4C4C4C"/>
    <path d="M28.6 20C29 19.9 55 32 55 32s4.7 1.7 3 6" stroke="#4C4C4C"/>
</svg>
