<svg width="173" height="121" xmlns="http://www.w3.org/2000/svg"><g fill="none" fill-rule="evenodd"><path d="M-14 161h200V-39H-14z"/><g fill-rule="nonzero"><path d="M.3.5l22.36 119.73 150.14-92z" fill="#C9ECF2"/><g fill="#4C4C4C"><path d="M78.03 22.85c-6.23-2.55-12.34 2.1-14.36 7.89-2 5.75-.11 13.48 6.12 15.66 1.28.45 1.84-1.57.56-2.02-5.16-1.81-6.24-8.52-4.66-13.09 1.68-4.82 6.65-8.52 11.8-6.41 1.25.52 1.8-1.52.56-2.03h-.02z"/><path d="M77.32 24.76c.66 1.45 1.95 2.55 3.61 2.5a3.66 3.66 0 003.4-2.72c.39-1.3-1.64-1.84-2.03-.56-.23.75-.85 1.26-1.65 1.17-.8-.1-1.2-.76-1.52-1.45-.55-1.23-2.36-.16-1.81 1.05z"/><path d="M78.32 24.9c1.2.78 2.39-.34 3.09-1.25.7-.91 1.09-2.3.31-3.33-.34-.45-.9-.69-1.44-.38-.44.26-.72.98-.37 1.44.23.3.14.55-.06.86a3.49 3.49 0 01-.65.76c-.17.09-.1.12.2.08-1.13-.74-2.19 1.07-1.05 1.81h-.03z"/><path d="M79.52 23.98c.63-1.74-.1-3.78-2.1-3.97-.56-.05-1.05.53-1.05 1.05.01.58.48 1.04 1.05 1.05.5.05.16 1.12.09 1.31-.2.53.21 1.15.73 1.3.55.14 1.12-.19 1.29-.74h-.01z"/></g><path d="M71.69 33.8l-3.15 21.02-4.63 6.83 5.6 9.06-8.27 8.15-15.25.56 5.62 25.12.93.7h67.82s5.27-12.88 6.27-15.19l6.22-14.43.43-22.81 2.1-4.59-8.6-12.1-14.03 2.22-22.1-3.98-5.83-.19L82.7 34l-1.63.2-9.38-.4z" fill="#FFF"/><path d="M51.66 105.24L46 79.44s18.36-.8 21.88-.07c3.52.73 17.04 2.65 19.16 2.92 2.12.28 8.22-.61 8.22-.61l6.34-1.05 10.71.98 6.41-6.19 2.2-6.26-1.27-12.85 4.26-10.93 2.87-9.25 8.6 12.1-1.89 5.7v20.95l-13.84 30.36h-68z" fill="#FF8000"/><path d="M83.29 69.76a59.9 59.9 0 017.42-9.23c.56-.43.87-.3 1.52-.12 2.1.55 4.05 1.6 5.66 3.07a30.75 30.75 0 013.91 4.8c.77 1.1 2.6.05 1.81-1.04-1.41-2-2.84-4.05-4.72-5.66a16 16 0 00-6.76-3.35c-1.1-.26-1.9-.14-2.74.65a64.44 64.44 0 00-7.92 9.83c-.74 1.13 1.07 2.18 1.81 1.05z" fill="#FF8000"/><path d="M85.5 70.66a3.6 3.6 0 011.45-.13l-1-1.32c-.4 1.25-1.3 3.63-.58 4.9.9 1.57 2.89.13 4.11-.02 1.95-.25 3.7.84 5.63.73 1.83-.1 3.57-.92 5.43-.7.75.08 1.1-.74 1.01-1.33a26.7 26.7 0 00-1.23-4.79l-.73 1.3c1.14-.2 2.26-.47 3.36-.83 1.28-.41.73-2.44-.56-2.02-1.1.36-2.22.63-3.36.82-.56.16-.89.73-.73 1.3a26.7 26.7 0 011.23 4.78l1.01-1.33c-2.43-.28-4.72 1.13-7.13.5-1.13-.29-2.22-.6-3.4-.57-.55.01-1.08.08-1.6.2-.57.13-1.38.63-1.94.6l.75.3c-.1-.1.23-1.37.28-1.57.12-.58.28-1.15.46-1.71.22-.7-.37-1.27-1.01-1.33-.68-.07-1.37 0-2.02.2-1.29.38-.74 2.4.56 2.02z" fill="#FF8000"/><path d="M90.72 61.5a37.55 37.55 0 01-5.52 5.27l1.48 1.49a41.88 41.88 0 006.1-5.89 1.05 1.05 0 00-1.49-1.48 26.62 26.62 0 00-4.09 4.13c-.67.84.23 2.42 1.27 1.64l4.26-3.2-1.43-1.43A25.31 25.31 0 0088.5 67c-.37.88.45 2.05 1.44 1.44a35.8 35.8 0 006.25-4.99c.96-.95-.5-2.39-1.49-1.48a55.23 55.23 0 00-6.8 7.08c-.63.82.62 2.03 1.44 1.44l4.46-3.22-1.27-1.64a22.54 22.54 0 00-3.82 4.54c-.57.9.56 1.95 1.44 1.43a42.75 42.75 0 006.97-5.05l-1.48-1.49c-1.6 1.43-3.15 2.89-4.06 4.86-.22.47-.18 1.2.37 1.44.68.33 1.47.4 2.2.17.4-.13 1.08-.4 1.35-.72.48-.13.52-.37.12-.73l-.16.35c-.94 1.27.09 3.1 1.63 2.84 1.72-.29 1.94-2.06 1.47-3.43-.8-2.33-.46-4.33.12-6.68h-2.02a26.92 26.92 0 001.69 3.94l1.43-1.44-4.66-2.93c-1.08-.68-2.4-1.98-3.74-1.77-.36.1-.64.37-.74.73-.12.44 0 .91.33 1.23.26.27.65.37 1.02.26 1.18-.44 1.05-1.85.5-2.78-.24-.4-.72-.6-1.18-.48-1.42.24-1.97 1.78-2.7 2.84-1.01 1.43-2.2 2.73-3.54 3.85l1.65 1.27c.57-.87 1.02-1.82 1.34-2.8.34-1.03-1.03-1.72-1.75-1.02-.7.67-1.23 1.5-1.57 2.4-.33.83.82 1.7 1.54 1.19 1.53-1.11 2.96-2.32 4.42-3.52 1.07-.88 3.36-2.36 4.36-.55l.38-1.44a12.53 12.53 0 00-6.54 7.5l1.55-.62a5.11 5.11 0 01-2-1.54c-.66-.87-2.28-.42-1.91.81.36 1.19.57 2.42.62 3.66.02.64.65 1.24 1.32 1 2.7-.92 5.56-1.33 8.41-1.2.74.04 1.4-.94.9-1.57a15.36 15.36 0 01-2.76-5.8c-.26-1.13-2.16-.92-2.06.27l.65 7.88 1.58-.9a8.54 8.54 0 00-3.33-.92c-1.33-.14-2.84-.1-3.94-1-.8-.66-.97-1.95-1.94-2.38-1.16-.5-2.4.7-3.3 1.27-.98.62-.37 2.29.8 1.92l1.42-.45c1.29-.4.74-2.43-.55-2.02l-1.43.45.81 1.91c.57-.36 1.31-1.05 2-1.16l-.8-.1c.4.2.81 1.35 1.23 1.78.63.63 1.41 1.1 2.27 1.38 1.84.6 3.96.17 5.7 1.12.64.36 1.64-.07 1.57-.9l-.66-7.86-2.05.26a16.82 16.82 0 002.98 6.3l.9-1.56c-3.04-.15-6.08.29-8.96 1.27l1.33 1.02a16.51 16.51 0 00-.7-4.22l-1.91.81c.7.98 1.65 1.77 2.74 2.3a1.07 1.07 0 001.54-.63 10.46 10.46 0 015.59-6.25c.52-.25.63-.97.37-1.43-.98-1.78-3.18-2.24-5-1.58a9.78 9.78 0 00-2.82 1.84 64.58 64.58 0 01-3.83 3.05l1.53 1.18c.23-.56.59-1.07 1.03-1.48l-1.77-1.01a9.64 9.64 0 01-1.13 2.3c-.7 1.05.78 2 1.65 1.27a21.54 21.54 0 003.98-4.45c.34-.5.71-1.6 1.33-1.7l-1.18-.49.1.41.73-.73-.09.03 1.02.26-.08-.1.26 1.03.03-.12-.73.73.2-.03-.82-.1c1.26.58 2.43 1.5 3.6 2.23l3.8 2.4c.94.58 1.91-.55 1.44-1.44a23.4 23.4 0 01-1.48-3.44c-.31-.93-1.76-1.05-2.02 0a18.64 18.64 0 00-.74 4.76 8.27 8.27 0 00.7 3.23c.01.27.15.52.36.7.22.44.37.4.46-.14.55-.83.38-2.24-.57-2.7-.44-.2-.94-.2-1.39-.02-.62.21-1.78 1.4-2.46 1.1l.4 1.43c.84-1.81 2.26-3.12 3.73-4.44 1-.9-.48-2.37-1.48-1.48a39.8 39.8 0 01-6.56 4.72l1.44 1.43c.98-1.52 2.15-2.9 3.49-4.12.86-.78-.3-2.36-1.28-1.64l-4.45 3.21 1.43 1.43c1.9-2.45 4.2-4.55 6.47-6.64l-1.48-1.48a33.46 33.46 0 01-5.82 4.63l1.43 1.44a25.1 25.1 0 012.8-4.98c.6-.83-.61-2.06-1.44-1.44l-4.26 3.2 1.27 1.65c1.2-1.52 2.58-2.9 4.09-4.13l-1.48-1.48a41.6 41.6 0 01-6.1 5.92c-1.06.84.44 2.3 1.5 1.49a37.42 37.42 0 005.5-5.26c.88-1.02-.6-2.51-1.47-1.49z" fill="#FF8000"/><path d="M99.21 67.99l-.23-.07.37-1.44c-1.88 1.25-4.1 3.51-2.4 5.86a1.05 1.05 0 001.94-.53c.16-1.88.62-4 .43-5.87-.16-1.72-1.55-1.98-3-1.73-.9.17-1.8.38-2.68.64-1.14.33-2.05.82-3.25.56-1.38-.3-2.67-.38-3.24 1.19-.46 1.27 1.57 1.82 2.02.56-.16.43 2.6.46 2.85.4 1.19-.26 2.32-.76 3.5-1.04.28-.07 1.5-.5 1.73-.27.17.18-.11 1.5-.14 1.75l-.31 3.8 1.95-.52c-.91-1.27.72-2.35 1.66-2.98.49-.3.65-.93.37-1.44-.56-1.14-2.24-1.39-3.05-.35-.8 1.04.66 2.55 1.48 1.48z" fill="#FF8000"/><path d="M98.34 70.14c-2.64.57-5.14 1.13-7.86 1.02a7.62 7.62 0 00-5.73 1.93h1.49a3.01 3.01 0 00-2.42-.92l.91 1.57 2.4-4.1c.69-1.18-1.12-2.24-1.8-1.06l-2.41 4.12c-.38.65.1 1.63.9 1.57.35-.1.71.02.93.3.42.4 1.07.4 1.49 0 1.89-1.7 3.93-1.15 6.24-1.25 2.16-.1 4.3-.7 6.41-1.15 1.31-.29.76-2.3-.55-2.03z" fill="#FF8000"/><path d="M84.76 74.78c.83-.45 2.26-.21 3.2-.34 1.12-.16 2.23-.42 3.3-.79 1.27-.43.72-2.45-.56-2.02-1.29.45-2.62.73-3.98.84-1.07.07-2.05-.03-3.02.49-1.18.64-.13 2.45 1.05 1.81h.01zM92.67 63.06c.58-.6.9-1.4.88-2.22a1.05 1.05 0 10-2.1 0v.19c.03-.12.03-.12 0 0-.01.11-.04.18-.07.27.06-.18-.04.07-.06.1l-.1.16c.06-.08.05-.08-.02 0a1.05 1.05 0 001.48 1.49v.01z" fill="#FF8000"/><g fill="#4C4C4C"><path d="M50.42 106.23h74.45c1.51 0 1.52-2.36 0-2.36H50.42c-1.52 0-1.52 2.36 0 2.36z"/><path d="M52.8 103.82l-5.48-23.96c-.34-1.48-2.62-.86-2.27.62l5.47 23.97c.34 1.48 2.62.85 2.28-.63z"/><path d="M45.72 80.38c2.75.48 5.47.12 8.23-.03 2.8-.16 5.62-.2 8.43-.1 5.7.15 11.38.8 16.97 1.96 1.48.3 2.11-1.97.63-2.28a100.66 100.66 0 00-24.85-2c-2.88.12-5.9.68-8.78.17-1.49-.26-2.12 2.01-.63 2.28z"/><path d="M79.03 82.07l5.6 1.07c1.62.3 3.3.75 4.94.56 1.66-.18 3.23-.8 4.84-1.15a38.8 38.8 0 015.63-.75c1.51-.1 1.52-2.45 0-2.36-3.42.22-6.6 1.02-9.94 1.78-1.63.38-3.22-.05-4.83-.36l-5.62-1.06c-1.48-.28-2.12 2-.62 2.27zM80.65 35.16c4.3.06 8.47.1 12.73.9 6.76 1.25 13.39 3.32 20.32 3.37 1.52.01 1.52-2.35 0-2.36-7.04-.05-13.77-2.27-20.65-3.46-4.15-.72-8.21-.74-12.4-.8-1.52-.03-1.52 2.33 0 2.35z"/><path d="M71.32 34.76c3.07.47 6.23.38 9.33.4 1.51.02 1.52-2.34 0-2.36-2.87-.02-5.86.13-8.7-.31-1.49-.23-2.12 2.04-.63 2.27z"/><path d="M70.59 33.3c-1.4 6.81-2.46 13.69-3.19 20.63-.16 1.5 2.2 1.5 2.36 0 .71-6.72 1.75-13.39 3.1-20 .3-1.49-1.97-2.12-2.27-.63zM131.75 75.18l-12.37 28.58c-.6 1.38 1.44 2.58 2.04 1.19l12.36-28.58c.6-1.38-1.43-2.58-2.03-1.19zM99.91 81.6c4.05.47 8.08.98 12.15 1.26 1.51.1 1.5-2.26 0-2.36-4.07-.28-8.1-.79-12.15-1.26-1.5-.17-1.49 2.2 0 2.36z"/><path d="M111.21 82.35c1.82 4.46 3.88 8.91 5.06 13.6.37 1.46 2.64.84 2.27-.63-1.17-4.7-3.24-9.14-5.06-13.6-.56-1.4-2.84-.8-2.27.62v.01zM134.28 47.73c-.42 1.43-1.05 2.74-1.7 4.08-.65 1.34 1.39 2.56 2.04 1.2.72-1.53 1.46-3.03 1.93-4.66.42-1.46-1.85-2.1-2.27-.62z"/><path d="M132.16 52.62c.3 7.6.16 15.22-.44 22.8-.11 1.52 2.25 1.5 2.36 0 .6-7.58.75-15.2.44-22.8-.07-1.52-2.43-1.52-2.36 0zM125.68 35.63a299.34 299.34 0 01-4.27 13.51c-.49 1.45 1.79 2.06 2.28.63 1.53-4.47 2.95-8.97 4.27-13.51.42-1.46-1.86-2.09-2.28-.63zM119.2 56.83l.96 8.31c.15 1.28.43 2.52.1 3.77-.37 1.33-.8 2.64-1.2 3.96-.43 1.46 1.84 2.08 2.28.63.42-1.38.86-2.76 1.24-4.15.34-1.25.15-2.42 0-3.69l-1.03-8.83c-.17-1.5-2.53-1.51-2.36 0zM113.62 82.18l3.43-3.38c1.08-1.07-.59-2.74-1.67-1.67l-3.43 3.38c-1.08 1.07.58 2.74 1.67 1.67zM67.67 53.79a32.34 32.34 0 00-3.21 4.2c-.67 1.04-1.93 2.6-1.6 3.93.18.73.74 1.38 1.13 2l1.66 2.66 3.33 5.31c.8 1.29 2.85.1 2.04-1.19l-5.27-8.41c-.14-.22-.53-.64-.56-.89.03.24.16-.26.27-.47a28.76 28.76 0 013.88-5.47c1-1.13-.66-2.8-1.67-1.67z"/><path d="M69 70.5c-1.4 1.83-3.35 3.15-5.16 4.55-1 .77-4.16 2.64-3.1 4.22.85 1.25 2.9.07 2.04-1.19l-.07-.1v1.18c.33-.71 1.42-1.35 2.03-1.83.75-.6 1.53-1.17 2.29-1.75a21.3 21.3 0 004-3.89c.93-1.2-1.12-2.38-2.03-1.19zM114.33 39.3c4.16-1.09 8.39-1.71 12.64-2.32 1.5-.21.86-2.48-.63-2.27-4.24.6-8.48 1.23-12.63 2.3-1.47.39-.85 2.67.62 2.28z"/><path d="M126.37 36.59c3.02 3.9 5.18 8.39 8.21 12.28.93 1.2 2.59-.48 1.67-1.67-3.03-3.9-5.19-8.38-8.22-12.28-.92-1.2-2.58.49-1.66 1.67zM91.33 70.34c2.12-.16 4.23-.32 6.35-.5 1.5-.12 1.52-2.48 0-2.35l-6.35.5c-1.5.11-1.52 2.47 0 2.35zM70.16 71.7c5.4-.29 10.81-.62 16.22-1 1.5-.1 1.51-2.46 0-2.36-5.4.38-10.81.71-16.22 1-1.51.08-1.52 2.44 0 2.36zM105.3 69.46l11.27 1.24c1.5.17 1.5-2.2 0-2.36L105.3 67.1c-1.51-.16-1.5 2.2 0 2.36zM93.99 34.18L93.56 30c-.07-.7-.19-1.4-.19-2.09 0-.7.23-.82.88-.78 2.7.13 5.5.44 8.1 1.2 1.17.34 2.31.79 3.52.98.79.12 2.57-.26 3.05.4.66.88.68 2.68.78 3.72.14 1.35.17 2.71.1 4.07-.08 1.52 2.28 1.51 2.35 0 .1-1.78.01-3.57-.24-5.33-.2-1.34-.37-2.94-1.23-4.05-.98-1.27-2.19-1.02-3.6-1.05-1.74-.03-3.4-.85-5.05-1.26-1.7-.4-3.43-.67-5.16-.82-1.35-.13-3.15-.58-4.43.06-1.17.6-1.48 1.84-1.43 3.05.08 2.02.4 4.07.61 6.08.15 1.5 2.52 1.51 2.36 0v-.01zM111.48 81.6l-4.15 5.32c-.65.84-1.4 1.64-1.69 2.68-.28 1.04-.44 2.16-.66 3.24l-.75 3.75c-.08.35.12.7.46.8.35.1.7-.1.8-.45l1.28-6.36c.06-.47.21-.92.43-1.33.3-.43.6-.85.94-1.25l2-2.55 2.27-2.91a.68.68 0 000-.93.66.66 0 00-.93 0z"/><path d="M104.59 96.13c-3.33.79-6.75.92-10.16.9-3.52-.02-7.04-.12-10.55-.2l-5.98-.1c-.84-.03-.84 1.29 0 1.3l10.79.21c3.46.07 6.93.21 10.38 0 1.98-.11 3.94-.4 5.87-.84.82-.2.47-1.46-.35-1.26z"/><path d="M77.9 96.52c-5.84-.33-11.5 1.55-17.33 1.48-.4 0-.81-.02-1.22-.05-.36-.02-.83-.15-1.18-.05a.7.7 0 00-.38 1.05c.22.37.82.52 1.12.15a.67.67 0 000-.93.66.66 0 00-.93 0l-.02.03.46-.2h-.03l.47.2.1.19v.35-.03l-.45.46c-.1.02.11.04.1.04l.25.02.42.04a24.26 24.26 0 002.87.02c1.28-.06 2.56-.2 3.83-.36 2.53-.32 5.03-.77 7.56-1 1.45-.13 2.9-.16 4.35-.1.84.05.83-1.26 0-1.3v-.01z"/><path d="M46.16 79.94a68.18 68.18 0 005.18 7.1c.9 1.09 1.91 2.1 2.74 3.24.79 1.14 1.42 2.39 1.88 3.7l1.86 4.96c.1.34.45.54.8.45.35-.1.55-.45.46-.8l-1.68-4.46a20.89 20.89 0 00-1.8-3.93c-.77-1.22-1.8-2.28-2.74-3.38a64.98 64.98 0 01-5.57-7.54c-.45-.71-1.58-.06-1.13.66z"/><path d="M52.62 104.45a60.53 60.53 0 014.59-10.36c.41-.73-.72-1.4-1.13-.66a62.37 62.37 0 00-4.72 10.67c-.26.8 1 1.15 1.26.35zM105.57 91.94a21.51 21.51 0 015.39 4.46c.83.95 1.6 1.96 2.43 2.91.81.93 1.68 1.8 2.6 2.64 1.04.96 2.11 1.87 3.2 2.78.26.25.66.25.92 0a.66.66 0 000-.93 52.6 52.6 0 01-5.55-5.14c-1.68-1.89-3.08-3.86-4.98-5.48a22.94 22.94 0 00-3.35-2.38c-.73-.42-1.4.7-.66 1.13zM126.59 63.01c4.54 4.54 8.15 9.84 11.3 15.42 1.55 2.75 3 5.56 4.4 8.39 1.5 2.99 3.34 6.03 3.94 9.35.26 1.5 2.54.86 2.27-.63-.6-3.3-2.4-6.33-3.88-9.3-1.5-3.04-3.04-6.05-4.71-9-3.22-5.75-6.97-11.23-11.65-15.9-1.08-1.07-2.75.6-1.67 1.67z"/><path d="M146.97 97.44c1.52.2 3.06.26 4.59.2 1.51-.07 1.52-2.43 0-2.37-1.53.07-3.07 0-4.6-.19-.63-.07-1.16.6-1.17 1.18 0 .7.55 1.1 1.18 1.18z"/><path d="M148.04 97.05c1.3-.45 2.63-.85 3.96-1.21 1.47-.4.85-2.67-.63-2.28-1.33.37-2.65.77-3.96 1.22-1.43.49-.81 2.77.63 2.27z"/><path d="M146.84 95.47a3.5 3.5 0 00-1.77.57c-.51.34-.8 1.04-.43 1.6.33.51 1.07.8 1.62.43l.26-.16c.2-.12-.23.07 0 0l.23-.07.15-.03c-.18.02-.21.03-.08.02.61-.04 1.21-.53 1.18-1.18-.03-.6-.52-1.22-1.18-1.18h.02zM72.81 88.16a24.28 24.28 0 00-16.32 23.18c.02 1.52 2.38 1.52 2.36 0a21.87 21.87 0 0114.59-20.9c1.42-.5.81-2.78-.63-2.28zM96.48 89.7c-3.74 1.23-5.97 4.67-7.73 7.98a39.92 39.92 0 00-4.16 12.42c-.24 1.49 2.04 2.13 2.28.63.6-3.83 1.77-7.55 3.5-11.03 1.47-2.94 3.4-6.63 6.73-7.73 1.44-.47.82-2.75-.62-2.28z"/></g><g fill="#4C4C4C"><path d="M103.67 37.13c.43-1.14.28-3.38 1.33-4.12 1.16-.81 3.67.55 5.05.52 1.57-.02 2.98-.79 4.34-1.44.86-.43 1.86-1.16 2.8-1.35 1.37-.26 1.14 1.34.93 2.27-.34 1.48 1.94 2.1 2.27.63.45-1.93.33-5.06-2.2-5.37-1.12-.14-2.15.39-3.12.86-1.32.64-2.65 1.48-4.06 1.87-2.38.66-4.76-1.43-7.1-.16-2.07 1.12-1.8 3.75-2.52 5.65-.54 1.42 1.74 2.03 2.28.63z"/></g><g><path d="M91.32 40.5c.09-.03.17-.05.26-.06l-.17.02h.31l-.17-.02c.11.01.22.04.33.08l-.16-.06c.1.04.2.1.28.16l-.14-.1.22.2-.1-.13.08.13c.09.15.23.26.4.3a.66.66 0 00.73-.96 1.9 1.9 0 00-2.22-.81.72.72 0 00-.4.3.66.66 0 00.24.9c.15.08.33.1.5.06h.01zM105.14 43.24c-.17.13-.02.01.03-.01l.14-.08-.05.02.08-.03.15-.05.17-.03c-.03 0-.18.02-.06 0h.25c.06 0 .23.05.02 0 .1.03.21.04.32.08l.06.02c.06.02.12.07-.03-.02l.13.07.14.09.07.05c-.15-.1-.08-.07-.05-.04l.12.12.06.06c.07.08-.1-.13-.02-.03a.66.66 0 001.13-.66c-.38-.54-.96-.9-1.62-1a2.42 2.42 0 00-1.98.52.66.66 0 00.46 1.1.77.77 0 00.47-.18z" fill="#4C4C4C"/><path d="M96.46 47.29c.23-.29.44-.6.6-.93l.08-.1.02-.02.08-.07c.02-.03.02-.02-.03.01l.05-.03a.36.36 0 01.09-.05c-.15.04.02 0 .02 0h-.04.06-.03l.06.02c-.09-.02-.01 0 .03.03l.05.03.07.05.07.08a2.33 2.33 0 01.28.31c.09.13.16.26.23.4.06.13-.03-.1.01.04l.04.12.07.25a.52.52 0 001.01-.28c-.09-.4-.26-.8-.5-1.13a2.4 2.4 0 00-1.08-.9c-.5-.15-1.02.02-1.34.42a3.1 3.1 0 00-.35.55l-.16.26-.08.11c.08-.1-.04.05-.06.06a.52.52 0 10.75.74v.03z" fill="#FF8000"/></g><g fill="#FF8000"><path d="M105.63 9.92a15 15 0 009.72-.78c.99-.47 1.6-1.4 1.17-2.49-.72-1.77-2.76-2.28-4.48-2.46-2.3-.26-4.62-.15-6.88.34a11.16 11.16 0 00-5.85 3.34.62.62 0 00-.17.6c1 2.4 3.78 2.92 6.07 3.21a24.52 24.52 0 006.68-.06 5.47 5.47 0 001.95-.52c1.06-.6 1.43-1.8 1.22-2.94a3.72 3.72 0 00-2.13-2.6 10.3 10.3 0 00-3.7-.8c-1.21-.08-2.43-.07-3.64.04-2.78.28-5.49 1.16-7.6 3.03a.62.62 0 00-.16.6c.22.91 1.09 1.36 1.9 1.6a29.88 29.88 0 009.99 1.16c1.07-.05 2.12-.28 2.77-1.2a.63.63 0 000-.63c-.8-1.5-2.73-1.48-4.2-1.44-1.7.03-3.47.14-5.08.73a7.3 7.3 0 00-2.51 1.51.63.63 0 00.28 1.05c2.92.8 5.96 1.14 8.99 1l-.32-1.17c-.84.4-1.64.86-2.4 1.39-.7.49-1.63 1.07-1.72 2-.02.4.11.8.37 1.1.19.25.51.47.62.76.23.6-.63 1.29-1.03 1.6a.64.64 0 00-.12.98l.4.4c.6.56 1.48-.33.9-.9l-.41-.4-.13 1c.67-.51 1.36-1.13 1.6-1.97.12-.42.1-.86-.09-1.25a3.86 3.86 0 00-.69-.9c-.18-.22-.22-.32-.03-.55.27-.29.58-.54.92-.75a15.9 15.9 0 012.44-1.43c.57-.26.29-1.2-.31-1.17-2.92.14-5.84-.19-8.65-.95l.27 1.04c1.38-1.29 3.3-1.67 5.13-1.8.94-.08 1.88-.1 2.83-.07.68.04 1.5.16 1.86.82v-.63c-.5.7-1.79.6-2.52.62a30.37 30.37 0 01-7.48-.8 14.2 14.2 0 01-1.65-.46c-.31-.12-.66-.29-.74-.62l-.16.61c1.59-1.4 3.6-2.16 5.66-2.51 1.05-.18 2.12-.25 3.2-.24 1.07-.01 2.14.08 3.2.26.92.17 2 .5 2.55 1.33.4.6.62 1.52.14 2.13-.32.4-.88.52-1.36.62a24.27 24.27 0 01-5.79.25 16 16 0 01-3.81-.66c-.9-.3-1.91-.82-2.3-1.74l-.16.6c2.55-2.9 6.57-3.54 10.25-3.4.85 0 1.7.09 2.53.24.67.14 1.39.37 1.9.85.27.23.46.53.54.87.04.3-.21.48-.45.62-.81.42-1.68.72-2.58.88-2.11.48-4.32.45-6.42-.1-.78-.2-1.12 1-.33 1.21z"/></g><g fill="#FF8000"><path d="M39.28 5.78l2.23 3c.38.51 1.02.77 1.62.42.5-.29.8-1.1.42-1.6l-2.23-3c-.38-.52-1.02-.78-1.61-.43-.5.3-.81 1.1-.43 1.61zM25.4 26.8l3 1.34c.57.27 1.26.17 1.6-.42.3-.5.17-1.35-.42-1.61l-2.99-1.35c-.58-.27-1.27-.17-1.61.42-.3.5-.16 1.35.42 1.61zM21.41 52.63a4.1 4.1 0 012 .31c.6.23 1.3-.26 1.46-.83.18-.66-.23-1.22-.83-1.45a6.49 6.49 0 00-3.25-.3c-.64.08-.98.9-.83 1.45.19.68.82.91 1.45.82zM22.58 84.5a5.95 5.95 0 012.36-.76 1.2 1.2 0 001.18-1.18c0-.6-.54-1.24-1.18-1.18-1.25.1-2.46.47-3.55 1.09-1.31.74-.13 2.78 1.19 2.03z"/></g></g></g></svg>