<svg width="44" height="44" viewBox="0 0 44 44" fill="none" xmlns="http://www.w3.org/2000/svg">
<path d="M40.6484 15.7383C40.4023 15.3828 39.9648 14.8086 39.8828 14.5898C39.7734 14.2891 39.6367 13.5508 39.5547 13.0586C39.2539 11.3086 38.8711 8.90234 36.9844 7.01562C35.0977 5.12891 32.6914 4.71875 30.9141 4.41797C30.3945 4.33594 29.7109 4.22656 29.4102 4.08984C29.1914 4.00781 28.5898 3.57031 28.2344 3.29688C26.8672 2.3125 24.7891 0.78125 22.0273 0.78125C19.2656 0.78125 17.2695 2.23047 15.793 3.29688C15.4648 3.54297 14.8633 3.98047 14.6172 4.0625C14.3438 4.17188 13.6328 4.30859 13.0859 4.39062C11.3359 4.69141 8.92969 5.07422 7.04297 6.96094C5.21094 8.79297 4.77344 11.1992 4.5 12.8398V13.0312C4.39062 13.4961 4.28125 14.2344 4.14453 14.5352C4.03516 14.7539 3.57031 15.4102 3.35156 15.7109C2.36719 17.0781 0.835938 19.1562 0.835938 21.918C0.835938 24.6797 2.33984 26.7852 3.37891 28.1797C3.625 28.5352 4.03516 29.1094 4.14453 29.3281C4.25391 29.6016 4.36328 30.2305 4.47266 30.8594C4.77344 32.6094 5.15625 34.9883 7.04297 36.9023C8.92969 38.7891 11.4453 39.2266 13.1133 39.5C13.6328 39.582 14.3164 39.6914 14.5898 39.8281C14.8086 39.9375 15.4375 40.375 15.7656 40.6211C17.1328 41.6328 19.2109 43.1367 21.9727 43.1367C24.7344 43.1367 26.8398 41.6328 28.207 40.6211C28.5352 40.375 29.1367 39.9375 29.3828 39.8555C29.6836 39.7188 30.4219 39.6094 30.9141 39.5273C32.5547 39.2539 35.043 38.8438 36.9297 36.957C38.8438 35.0703 39.2266 32.6641 39.5273 30.8594C39.6094 30.3398 39.7188 29.6562 39.8555 29.3828C39.9375 29.1641 40.375 28.5625 40.5391 28.3438L40.6484 28.1797C41.6602 26.8125 43.1641 24.7344 43.1641 21.9727C43.1641 19.2109 41.7148 17.2148 40.6211 15.7109L40.6484 15.7383ZM12.1563 18.0078C12.1563 18.0078 12.1563 17.8711 12.1563 17.7891C12.0195 15.9844 13.3867 14.3984 15.2188 14.2891C17.0234 14.1523 18.6094 15.5195 18.7188 17.3516C18.7188 17.5156 18.7188 17.6523 18.7188 17.8164C18.8555 19.6211 17.4883 21.207 15.6562 21.3164C15.5742 21.3164 15.5195 21.3164 15.4375 21.3164C13.6328 21.3164 12.1563 19.8398 12.1563 18.0352V18.0078ZM18.4453 30.4219H14.125L25.5547 13.5508H29.875L18.4453 30.4219ZM31.8438 26.6484C31.707 28.4531 30.1484 29.8203 28.3437 29.7109C26.5391 29.5742 25.1719 28.0156 25.2812 26.2109C25.2812 26.1289 25.2812 26.0742 25.2812 25.9922C25.2812 24.1875 26.7578 22.7109 28.5625 22.7109C28.6445 22.7109 28.6992 22.7109 28.7812 22.7109C30.5859 22.8477 31.9531 24.4062 31.8438 26.2109C31.8438 26.375 31.8438 26.5117 31.8438 26.6758V26.6484Z" fill="#FB6100"/>
</svg>
