<svg viewBox="0 0 41 40" xmlns="http://www.w3.org/2000/svg"><g fill="#878787" fill-rule="nonzero"><path d="M16.78 39.78l.7.13c.3.07.61.03.88-.11a.87.87 0 00.31-.3c.1-.1.17-.23.2-.38l.04-.3c0-.2-.05-.4-.15-.56l-.18-.23c-.13-.14-.3-.24-.5-.29l-.7-.13a.9.9 0 00-.45-.02c-.15.01-.3.06-.42.14-.24.16-.43.4-.51.67l-.05.3c0 .2.06.4.16.57l.17.22c.14.14.31.24.5.3z"/><path d="M10.84 38.06c1.46.6 2.98 1.08 4.53 1.43.57.13 1.24-.17 1.38-.78.13-.58-.17-1.25-.78-1.39a28.02 28.02 0 01-4.54-1.43 1.13 1.13 0 00-1.27 1.66c.17.24.4.42.68.51zM4.92 34.1c.4.4.8.76 1.24 1.1.1.1.22.18.36.23.13.07.28.1.43.1.3-.02.58-.14.8-.34.2-.2.33-.5.33-.8l-.04-.3a1.12 1.12 0 00-.3-.49c-.42-.34-.84-.7-1.23-1.1a.83.83 0 00-.36-.22.86.86 0 00-.44-.1c-.15 0-.3.03-.43.1a.83.83 0 00-.36.23 1.13 1.13 0 000 1.59zM.75 26.67c.17.7.38 1.37.65 2.03a1.12 1.12 0 102.17-.6c-.27-.65-.48-1.33-.65-2.02a1.13 1.13 0 00-2.06-.27c-.14.26-.18.57-.11.87zM.6 16.88c-.33 1.4-.53 2.81-.6 4.24 0 .62.5 1.12 1.13 1.13a1.15 1.15 0 001.12-1.13c.02-.58.08-1.17.15-1.75l-.04.3c.1-.74.24-1.47.41-2.2a1.13 1.13 0 00-2.17-.59zM6.86 6.13a28.07 28.07 0 00-3.52 4.4c-.3.54-.12 1.22.4 1.54.55.3 1.22.12 1.55-.4a27.33 27.33 0 011.12-1.6l.09-.13c.15-.2-.1.13-.02.02l.21-.27C7.25 9 7.83 8.34 8.45 7.72a1.13 1.13 0 10-1.6-1.6h.01zM16.87.57a16.5 16.5 0 00-5.46 2.1 1.12 1.12 0 001.12 1.94 16.57 16.57 0 011.95-1l.34-.14c.86-.32 1.75-.57 2.65-.74a1.12 1.12 0 00.78-1.38 1.15 1.15 0 00-1.38-.79v.01z"/><path d="M24.67.26c-1.87-.3-3.77-.34-5.64-.12-.59.07-1.16.47-1.13 1.13.03.54.5 1.2 1.13 1.12a19.26 19.26 0 013.9-.09l.62.06.3.04.22.03c.58.1 1.24-.14 1.38-.78.13-.54-.16-1.3-.78-1.39z"/><path d="M24.14 39.14c3.2-.86 6.17-2.4 8.73-4.5a20.36 20.36 0 007.31-17.85 18.82 18.82 0 00-3.62-9.69A18.1 18.1 0 0026.62.68a1.13 1.13 0 00-.6 2.17c.79.2 1.56.46 2.32.76l.17.07c.11.05-.06-.02-.07-.02a18.37 18.37 0 012.96 1.62c.18.1.35.22.51.35l.23.16c.04.03.16.13-.02-.02l.14.11a15.56 15.56 0 012.35 2.35l.11.14c.1.12-.1-.15 0-.02l.7 1.01a16.65 16.65 0 011.27 2.4l-.03-.06.05.12a24.83 24.83 0 01.6 1.74c.23.79.4 1.59.53 2.4l.04.26c.03.17-.02-.2 0-.04a18.93 18.93 0 01.15 1.98c.02.8 0 1.62-.08 2.42l-.06.62c0 .04 0 .08-.02.13 0 0 .03-.22 0-.08-.03.13-.03.22-.05.34a20.62 20.62 0 01-1.07 4.05l-.1.28-.05.11-.04.08.04-.08c-.04 0-.42.93-.47 1.02-.34.68-.72 1.33-1.14 1.96-.23.32-.44.63-.68.94-.1.14 0-.04.03-.04.03.01-.07.1-.08.1l-.18.23a17.28 17.28 0 01-1.94 2.06c-.28.26-.57.51-.87.75l-.42.34c-.14.1.16-.12-.06.05l-.23.17a21.64 21.64 0 01-3.96 2.3l-.26.12-.04.02-.58.22a21.93 21.93 0 01-2.18.7 1.13 1.13 0 00.6 2.18z"/><path d="M18.12 39.94c1.64 0 3.27-.18 4.88-.52a1.12 1.12 0 00.78-1.38 1.15 1.15 0 00-1.38-.79c-.38.08-.76.15-1.13.2l-.26.05c-.05 0-.35.06-.05 0l-.57.07c-.75.07-1.5.11-2.25.11a1.13 1.13 0 000 2.25h-.02zM28.3 15.13c-1.57 2.94-3.09 5.93-4.52 8.95-.25.53-.17 1.24.4 1.54.5.26 1.27.16 1.54-.4 1.44-3.03 2.95-6.01 4.53-8.96a1.12 1.12 0 00-1.94-1.12v-.01zM23.15 14.42c-.3.1-.56.25-.8.45a2.33 2.33 0 00-.78 1.87 2.66 2.66 0 00.92 1.89c.26.22.55.39.86.51.45.16.94.16 1.38 0 1-.34 1.67-1.28 1.68-2.34 0-.51-.12-1.02-.36-1.47a2.09 2.09 0 00-1.27-1.09c-.73-.2-1.5.1-1.9.76-.14.26-.18.57-.1.86a1.13 1.13 0 002.09.21l-.18.23a.64.64 0 01.1-.1l-.22.18.08-.05-.26.11a.7.7 0 01.16-.04l-.3.04h.18l-.3-.05.14.04-.27-.11.17.1-.22-.18.2.2-.18-.22c.08.11.15.23.2.36l-.12-.27c.07.15.1.31.13.47l-.04-.3c.02.17.02.33 0 .5l.04-.3c-.02.12-.05.25-.1.37l.11-.26c-.04.1-.1.2-.16.28l.17-.23c-.07.09-.14.16-.22.23l.22-.18-.3.18.27-.12-.3.09.3-.04h-.27l.3.04a1.3 1.3 0 01-.28-.08l.27.11c-.1-.05-.2-.11-.3-.19l.22.18a2 2 0 01-.3-.3l.18.22a1.9 1.9 0 01-.23-.36l.12.27a1.59 1.59 0 01-.1-.36l.03.3a1.41 1.41 0 010-.37l-.04.3c.02-.12.05-.23.1-.34l-.12.27c.05-.1.1-.19.16-.27l-.17.23c.06-.09.14-.16.22-.23l-.22.18c.06-.05.14-.1.22-.13l-.27.1h.04c.28-.1.52-.27.67-.52a1.12 1.12 0 00-1.27-1.66l.02.03zM29.2 20.47c-.75.66-1.32 1.66-1.24 2.67.03.62.28 1.21.7 1.67.42.43 1 .69 1.6.71 1.04.07 2.07-.76 2.48-1.67.23-.46.34-.96.32-1.47a2.75 2.75 0 00-.63-1.64 2.16 2.16 0 00-2.57-.5c-.3.15-.55.38-.73.67a1.13 1.13 0 001.27 1.65c.27-.1.51-.27.67-.52l.02-.03-.17.23a.9.9 0 01.14-.14l-.23.17.17-.1-.27.12c.09-.03.18-.06.27-.07l-.3.04c.1-.01.19-.01.28 0l-.3-.04c.08.01.16.04.23.06l-.27-.11.25.14-.23-.17c.07.05.13.12.19.19l-.18-.23.18.3-.11-.26c.05.12.08.26.1.39l-.04-.3c.03.17.03.34 0 .5l.04-.3c-.02.17-.07.34-.13.5l.11-.26a2.3 2.3 0 01-.29.48l.18-.22c-.1.12-.21.23-.34.33l.23-.18c-.13.1-.27.2-.43.26l.27-.11c-.1.03-.2.06-.3.07l.3-.04a1.2 1.2 0 01-.27 0l.3.04a1.47 1.47 0 01-.26-.07l.27.11c-.12-.04-.22-.1-.32-.18l.23.18a1.55 1.55 0 01-.23-.23l.18.23c-.07-.1-.13-.2-.17-.3l.11.27a1.8 1.8 0 01-.1-.39l.04.3c-.02-.15-.02-.3 0-.45l-.04.3c.02-.17.07-.33.13-.49l-.11.27c.09-.2.2-.39.33-.56l-.17.22c.12-.16.27-.31.42-.45.44-.44.44-1.15 0-1.59a1.15 1.15 0 00-1.6 0h.01zM8.58 21.17a14.72 14.72 0 002.52-5.56l-2.2-.3-.97 9.55c-.05.59.56 1.15 1.13 1.13.61-.02 1.1-.51 1.12-1.13l.96-9.55c.06-.56-.47-1.04-.97-1.1a1.13 1.13 0 00-1.24.8c-.1.48-.23.95-.39 1.41l-.22.65a7.78 7.78 0 01-.21.5c-.4.86-.9 1.7-1.47 2.47-.35.47-.1 1.27.4 1.54.6.3 1.17.1 1.54-.4v-.01zM18.93 16.3h-1.74c-.58 0-1.16 0-1.74-.02a26.07 26.07 0 00-.27 1.24 4.44 4.44 0 012.52-.07 2.73 2.73 0 011.75 1.62 5 5 0 01.32 1.35c.05.47.04.95-.02 1.42-.05.45-.14.89-.26 1.32-.12.4-.28.8-.5 1.16-.2.37-.46.7-.77.99-.3.28-.64.5-1.02.67a3.13 3.13 0 01-2.57-.04 3.45 3.45 0 01-1.78-1.88 2.9 2.9 0 01-.19-1.31c0-.29.14-.56.37-.73.2-.15.44-.23.7-.23.24 0 .48.07.67.23.2.18.3.46.25.73-.05.38.06.76.3 1.05.19.24.48.38.78.38.27 0 .53-.08.74-.24.22-.17.42-.37.57-.6a3.69 3.69 0 00.62-2.18c0-.24-.02-.47-.07-.7a2.06 2.06 0 00-.24-.61.99.99 0 00-.5-.4c-.15-.07-.32-.1-.5-.1-.33 0-.66.07-.95.22-.3.14-.58.3-.84.48-.17.1-.35.17-.55.18a.78.78 0 01-.49-.18 1.13 1.13 0 01-.34-.45.99.99 0 01-.2-.65c.07-.7.17-1.39.3-2.07.14-.68.3-1.35.46-2.02a.9.9 0 01.96-.7.54.54 0 01.2-.01c1.35.04 2.7.06 4.06.06.28-.02.55.1.73.32a1.21 1.21 0 01-.04 1.45.86.86 0 01-.72.33z"/></g></svg>
