<svg xmlns="http://www.w3.org/2000/svg" width="48" height="48">
  <g fill="#878787" fill-rule="nonzero">
    <path d="M19.8 45.8l.7.1.9-.1.3-.3.2-.4v-.3l-.1-.5-.2-.3-.5-.3h-.7l-.5-.1-.4.1-.5.7v.3l.1.6.2.2.5.3z"/>
    <path d="M13.8 44c1.5.7 3 1.1 4.6 1.5.5.1 1.2-.2 1.4-.8 0-.6-.2-1.2-.8-1.4a28 28 0 01-4.6-1.4 1.1 1.1 0 00-1.2 1.6c.1.3.4.5.6.6zM8 40.2a16.3 16.3 0 001.6 1.3l.5.1c.2 0 .5-.1.7-.3.3-.2.4-.5.4-.8v-.3l-.4-.5-1.2-1a.8.8 0 00-.4-.3.9.9 0 00-.4-.1h-.4l-.4.3a1.1 1.1 0 000 1.6zm-4.2-7.4l.7 2c0 .3.3.5.5.7A1.1 1.1 0 006.6 34l-.7-2a1.1 1.1 0 00-2-.3c-.2.3-.2.6-.2.9zm-.1-9.8L3 27c0 .6.5 1.1 1.1 1.1.6 0 1.1-.5 1.2-1l.1-1.8v.3c0-.8.2-1.5.4-2.2a1.1 1.1 0 10-2.2-.6zM9.9 12a28.1 28.1 0 00-3.6 4.4c-.3.6 0 1.3.4 1.6.6.3 1.3 0 1.6-.4l.7-1.1.4-.5.1-.2c.2-.2-.1.2 0 0l.2-.2 1.7-2a1.1 1.1 0 00-1.5-1.6zm10-5.5c-2 .3-3.8 1-5.5 2a1.1 1.1 0 001.1 2 16.1 16.1 0 012-1l.3-.1 2.7-.8a1.1 1.1 0 00.8-1.4c-.2-.5-.8-.9-1.4-.7z"/>
    <path d="M27.7 6.3C25.8 6 23.9 5.9 22 6c-.6.1-1.1.5-1.1 1.2 0 .5.5 1.2 1.1 1a19 19 0 014 0h.6l.3.1h.2c.5.1 1.2-.1 1.4-.8 0-.5-.2-1.2-.8-1.3z"/>
    <path d="M27.1 45.1c3.2-.8 6.2-2.4 8.8-4.5a20.4 20.4 0 007.3-17.8c-.3-3.5-1.5-6.9-3.6-9.7a18.1 18.1 0 00-10-6.4 1.1 1.1 0 10-.6 2.1l2.3.8h.2c.1.1 0 0 0 0l.2.2a18 18 0 012.7 1.5c.2 0 .3.2.5.3l.2.2s.2.1 0 0h.2a15.6 15.6 0 012.3 2.4l.1.2c.1 0 0-.2 0 0a27.2 27.2 0 012 3.4v-.1.1a23.7 23.7 0 011.1 4.2v.2c.1.2 0-.2 0 0l.1.1a18.3 18.3 0 010 5s0-.2 0 0v.3a20.7 20.7 0 01-1.2 4v.3l-.1.1v.1l-.5 1-1.1 2-.7.8c0 .2 0 0 0 0v.1l-.2.2a17 17 0 01-3.2 3.2c-.2.1.1-.1-.1 0l-.2.2a21.9 21.9 0 01-4 2.3l-.3.1c-.2.1.2 0 0 0a12.9 12.9 0 01-1.6.6l-1.2.4a1.1 1.1 0 00.6 2.1z"/>
    <path d="M21.1 46c1.7 0 3.3-.2 4.9-.6a1.1 1.1 0 00.8-1.4c-.2-.6-.8-.9-1.4-.8l-1.1.3H24s-.3 0 0 0h-.6l-2.3.2a1.1 1.1 0 100 2.2zM31.3 21l-4.5 9c-.3.5-.2 1.2.4 1.5.5.3 1.3.2 1.5-.4l4.6-9a1.1 1.1 0 00-2-1zm-5.2-.7l-.7.5-.5.5c-.2.4-.3.9-.3 1.3a2.7 2.7 0 00.9 2l.9.4c.4.2.9.2 1.3 0 1-.3 1.7-1.2 1.7-2.3l-.3-1.5a2 2 0 00-1.3-1c-.7-.3-1.5 0-2 .7v.9a1.1 1.1 0 002 .2l-.1.2v-.1l-.1.2h-.2.2-.3.1-.3.2-.3.2l-.3-.2.2.2-.1-.2.2.4-.1-.3v.5-.3.5-.3.4-.3.3l.1-.3-.2.3.2-.2-.3.2.3-.1h-.3.3-.3.3l-.3-.1.2.2a2 2 0 01-.3-.3l.2.2a2 2 0 01-.2-.4V22.5 22.4v.3l.1-.3-.2.2.3-.2-.3.2.3-.1h-.3c.3 0 .5-.2.7-.5a1.1 1.1 0 00-1.3-1.6zm6 6c-.6.7-1.2 1.7-1.1 2.7 0 .7.2 1.3.7 1.7.4.4 1 .7 1.6.7 1 0 2-.7 2.4-1.6.3-.5.4-1 .4-1.5 0-.6-.3-1.2-.7-1.7a2.2 2.2 0 00-2.5-.5 2 2 0 00-.8.7 1.1 1.1 0 001.3 1.7c.3-.1.5-.3.7-.6l-.2.2.2-.1-.3.2.2-.1h-.3.3-.3.3-.3.2-.3l.3.1-.2-.2.1.2-.1-.2.2.3-.2-.3.1.4v-.3.5-.3.5-.2l-.3.5.2-.3-.3.4.2-.2-.4.2H33 33.5h-.3.3l-.3-.1.2.1-.2-.2.1.2-.1-.3V29 28.8v.3l.1-.5-.1.3c0-.3.2-.4.3-.6l-.1.2.4-.4c.4-.5.4-1.2 0-1.6-.5-.5-1.2-.5-1.6 0zm-20.5.8c1.2-1.7 2-3.6 2.5-5.6l-2.2-.3-1 9.6c0 .5.6 1.1 1.2 1 .6 0 1-.4 1-1l1-9.6c.1-.5-.4-1-1-1-.5-.2-1 .2-1.2.7 0 .5-.2 1-.4 1.4l-.2.7s-.2.4 0 .1l-.2.4c-.4.8-.9 1.7-1.5 2.4-.3.5 0 1.3.4 1.6.6.3 1.2 0 1.6-.4zm10.3-4.9h-3.5a32.7 32.7 0 00-.2 1.2 4.4 4.4 0 012.5 0c.4 0 .7.2 1 .5l.8 1 .3 1.4v1.4l-.3 1.4-.5 1.1-.8 1-1 .7c-.4.2-.8.2-1.3.2-.4 0-.9 0-1.3-.3a3.5 3.5 0 01-1.8-1.8 3 3 0 01-.1-1.4c0-.2.1-.5.3-.7l.7-.2c.3 0 .5 0 .7.2.2.2.3.5.3.7-.1.4 0 .8.2 1.1.2.2.5.4.8.4.3 0 .6-.1.8-.3.2-.1.4-.3.5-.6l.4-.7a3.6 3.6 0 00.3-1.4l-.1-.7a2 2 0 00-.3-.7 1 1 0 00-.4-.4h-.5c-.4 0-.7 0-1 .2a7 7 0 00-.8.5 1 1 0 01-.6.1l-.5-.1-.3-.5a1 1 0 01-.2-.7 20.4 20.4 0 01.7-4c.1-.5.6-.8 1-.7h4.2c.3 0 .6.1.8.3l.2.8c0 .2 0 .5-.2.7-.2.2-.5.3-.8.3z"/>
  </g>
</svg>
