<svg width="44" height="44" viewBox="0 0 44 44" fill="none" xmlns="http://www.w3.org/2000/svg">
<path d="M40.5664 28.3711C40.4297 28.5625 39.9922 29.1641 39.8828 29.4102C39.7734 29.6836 39.6367 30.3945 39.5547 30.8867C39.2539 32.6641 38.8711 35.0703 36.957 36.9844C35.0703 38.8711 32.582 39.2812 30.9414 39.5547C30.4492 39.6367 29.7109 39.7461 29.4102 39.8828C29.1914 39.9648 28.5625 40.4297 28.2344 40.6484C26.8672 41.6602 24.7617 43.1641 22 43.1641C19.2383 43.1641 17.1602 41.6602 15.793 40.6484C15.4648 40.4023 14.8359 39.9648 14.6172 39.8555C14.3438 39.7461 13.6328 39.6367 13.1406 39.5273C11.4453 39.2539 8.95703 38.8438 7.07031 36.9297C5.18359 35.043 4.77344 32.6367 4.5 30.8867C4.39063 30.2578 4.30859 29.6289 4.17188 29.3555C4.08984 29.1367 3.65234 28.5625 3.40625 28.207C2.39453 26.8125 0.863281 24.707 0.863281 21.9453C0.863281 19.1836 2.36719 17.1055 3.37891 15.7383C3.59766 15.4375 4.0625 14.7813 4.17188 14.5625C4.28125 14.2617 4.41797 13.5508 4.5 13.0586V12.8672C4.80078 11.2266 5.26562 8.82031 7.09766 6.98828C8.92969 5.15625 11.3906 4.69141 13.1406 4.41797C13.6602 4.33594 14.3711 4.22656 14.6719 4.08984C14.8906 4.00781 15.5195 3.54297 15.8477 3.32422C17.3242 2.25781 19.3203 0.808594 22.082 0.808594C24.8438 0.808594 26.9219 2.3125 28.2891 3.32422C28.6719 3.59766 29.2461 4.03516 29.4648 4.11719C29.7383 4.22656 30.4492 4.36328 30.9687 4.44531C32.7461 4.74609 35.1523 5.12891 37.0391 7.04297C38.9258 8.95703 39.3359 11.3359 39.6094 13.0859C39.6914 13.5781 39.8008 14.3164 39.9375 14.6172C40.0195 14.8359 40.457 15.4102 40.7031 15.7656C41.7969 17.2695 43.2461 19.2656 43.2461 22.0273C43.2461 24.7891 41.7422 26.8672 40.7305 28.2344L40.5664 28.3711ZM8.54688 13.9336C8.4375 14.6992 8.27344 15.5195 8 16.2031C7.72656 16.832 7.28906 17.4883 6.71484 18.2539C5.89453 19.4023 5.01953 20.6055 5.01953 22C5.01953 23.3945 5.89453 24.5977 6.74219 25.7734C7.23438 26.457 7.72656 27.1406 8 27.7969C8.30078 28.5078 8.4375 29.3281 8.57422 30.2031C8.82031 31.625 9.03906 33.0742 9.99609 34.0039C10.9531 34.9336 12.4297 35.207 13.7695 35.4258C14.6445 35.5625 15.4922 35.6992 16.2031 36C16.832 36.2734 17.4336 36.6836 18.2539 37.2578C19.4023 38.1055 20.6055 38.9531 22 38.9531C23.3945 38.9531 24.5977 38.0781 25.7734 37.2305C26.4023 36.7656 27.1133 36.2461 27.7969 35.9727C28.5352 35.6719 29.4375 35.5078 30.2578 35.3984C31.5703 35.1797 33.0742 34.9336 34.0039 34.0039C34.9609 33.0469 35.1797 31.625 35.4258 30.2305C35.5625 29.3828 35.6992 28.5078 36 27.7969C36.2461 27.168 36.6836 26.5391 37.1484 25.9102L37.2578 25.7461C38.1055 24.5703 38.9805 23.3945 38.9805 22C38.9805 20.6055 38.1055 19.4023 37.2852 18.2539C36.793 17.5703 36.3008 16.8867 36.0273 16.2031C35.7266 15.4648 35.5625 14.5352 35.4531 13.7422C35.2344 12.375 34.9883 10.9258 34.0586 9.99609C33.1289 9.03906 31.6797 8.82031 30.2852 8.57422C29.4375 8.4375 28.5625 8.30078 27.8242 7.97266C27.168 7.69922 26.457 7.20703 25.8008 6.71484C24.625 5.86719 23.4219 4.99219 22.0273 4.99219C20.6328 4.99219 19.4297 5.86719 18.2812 6.71484C17.6523 7.17969 16.9414 7.69922 16.2578 7.97266C15.5195 8.27344 14.6719 8.41016 13.8242 8.54688C12.4297 8.76562 10.9805 9.01172 10.0508 9.96875C9.12109 10.9258 8.875 12.4023 8.65625 13.7148V13.8789L8.54688 13.9336Z" fill="#242E30"/>
<path d="M15.4375 21.2891C13.6328 21.2891 12.1563 19.8125 12.1563 18.0078C12.1563 17.9258 12.1563 17.8711 12.1563 17.7891C12.0195 15.9844 13.3867 14.3984 15.2188 14.2891C17.0234 14.1523 18.6094 15.5195 18.7188 17.3516C18.7188 17.5156 18.7188 17.6523 18.7188 17.8164C18.8555 19.6211 17.4883 21.207 15.6562 21.3164C15.5742 21.3164 15.5195 21.3164 15.4375 21.3164V21.2891ZM28.5625 22.6836C26.7578 22.6836 25.2812 24.1602 25.2812 25.9648C25.2812 26.0469 25.2812 26.1016 25.2812 26.1836C25.1445 27.9883 26.5117 29.5742 28.3438 29.6836C30.1758 29.793 31.7344 28.4531 31.8438 26.6211C31.8438 26.457 31.8438 26.3203 31.8438 26.1563C31.9805 24.3516 30.6133 22.7656 28.7812 22.6562C28.6992 22.6562 28.6445 22.6562 28.5625 22.6562V22.6836ZM25.5547 13.5508L14.125 30.4219H18.4453L29.875 13.5508H25.5547Z" fill="#242E30"/>
</svg>
