<svg xmlns="http://www.w3.org/2000/svg" width="48" height="48">
  <g fill="none" fill-rule="evenodd">
    <path d="M0 48h48V0H0z"/>
    <g fill-rule="nonzero">
      <path fill="#FF8000" d="M31 8.6c.4 0 6.1 2.5 8.8 8.2 2.6 5.7 4 12.8.5 16.7C37 37.4 31 46 22.7 45.7 14.4 45.6 7.4 40 6 37 4.8 34 4 22 6.4 18.4 9 15 14.7 7.8 20.6 7.5c6-.3 10.3 1 10.3 1z"/>
      <path fill="#4C4C4C" d="M21.2 46.5c3.8 0 7.5-1 10.7-2.9a24 24 0 007.9-7.3c2-3 3.3-6.4 3.6-10A18.8 18.8 0 0032.3 7.7 20 20 0 009 13.2c-3 3.4-5.1 7.6-5.8 12-.3 2.4-.3 5 .2 7.3s1.6 4.5 3 6.4c2.8 3.5 7 5.7 11.2 6.9l3 .7c.6 0 1.2-.2 1.4-.8.1-.6-.2-1.3-.8-1.4a29.4 29.4 0 01-6-1.7H15l-.3-.2a25.8 25.8 0 01-3.5-2l-.2-.2h-.2V40h-.1l-.2-.1-.3-.3a16.2 16.2 0 01-2.1-2.2c0 .1 0 0 0 0l-.2-.2-.2-.3-.4-.7-.8-1.5v-.1c-.2-.3 0 .1 0 0l-.2-.4a15.2 15.2 0 01-.9-3.2v-.2-.5a19.1 19.1 0 010-4V26s0-.3 0 0v-.4a20.8 20.8 0 011.4-4.7s.1-.4 0-.2l.2-.3.3-.8L9 17l.4-.6.2-.3.2-.2 1-1.2a22 22 0 012.3-2.2l.2-.2.2-.1.6-.5a29.4 29.4 0 013.4-2h.2.1l.2-.1a18.6 18.6 0 014.3-1.1h.4a17 17 0 013.7 0h.5c.2 0-.2 0 0 0h.7a19.6 19.6 0 013.4 1l.2.1.1.1h.2a17.7 17.7 0 013.1 1.9l.3.2h.1c-.2 0 0 0 0 .1a22.5 22.5 0 012.7 2.6l.2.2c.2.2-.1-.1 0 0l.1.2a18.8 18.8 0 012.1 3.7c0-.1 0-.2 0 0l.1.2.3.7a17 17 0 01.7 3v.1a12.7 12.7 0 01.2 1.6l-.1 2.4v.4a13.3 13.3 0 01-.4 1.8L40 31l-.2.5c.1-.3 0 0 0 0l-.2.4a21.5 21.5 0 01-1.8 3.3l-.4.5a7.1 7.1 0 01-.3.3s-.2.2 0 0l-.8 1a23 23 0 01-2.7 2.7l-.2.1-.2.2c.2-.2-.1 0-.2 0l-.2.3a21.7 21.7 0 01-3.9 2.2l-.3.1v.1c.2-.2 0 0 0 0a20.2 20.2 0 01-3.8 1.1l-.6.1H24c-.1.1-.5.1-.1.1l-1.3.1h-1.3a1.1 1.1 0 100 2.3z"/>
      <path fill="#FFF" d="M34.4 21.6c-1.8 3.2-3.4 6.4-5 9.6-.3.6-.2 1.3.4 1.7.6.2 1.4.1 1.7-.5l5-9.5c.3-.4.3-.9.1-1.3-.2-.4-.7-.6-1.1-.6-.5 0-.9.3-1.1.7zm-6-1.1l-.7.4a2 2 0 00-.7 1.7 2.3 2.3 0 00.9 1.6l.8.4c.4.2.8.2 1.2 0 1-.3 1.6-1 1.6-2 0-.5-.1-1-.3-1.3a2 2 0 00-1.2-1c-.7-.2-1.4.1-1.8.7a1 1 0 000 .7c0 .4.4.7.8.8a1 1 0 001-.6v.2l-.2.1h-.2.2-.3.2-.3.1-.2.1l-.2-.1.2.2-.2-.2.2.3V22v.5-.3.4-.2.3-.2l-.1.2.1-.2s0 .2-.2.2l.2-.1-.2.1H29h.3s-.2 0-.2-.2l.2.2-.3-.3.1.2-.2-.3.1.3v-.4V22.2v.2l.1-.2-.2.2.2-.1H29c.3 0 .5-.2.6-.4a1 1 0 00-.3-1.4 1 1 0 00-.8 0z"/>
      <path fill="#FFF" d="M34 27.5a4 4 0 00-1 3c0 .6.3 1.2.6 1.7.4.5.9.8 1.4.8 1 0 1.9-.8 2.2-1.8.2-.5.3-1 .3-1.6 0-.7-.2-1.3-.6-1.8-.5-.8-1.4-1-2.2-.6a2 2 0 00-.7.8c-.2.4-.1 1 .1 1.3.3.4.7.6 1 .5.3-.1.5-.3.6-.6v.1l-.2.2.2-.1h-.2.2-.3.3-.3.2-.2l.2.1-.2-.2.1.2-.1-.2.2.3-.1-.3v.5-.4.6-.4.6-.3l-.2.5.1-.2-.3.3.2-.1-.3.2H34.9h.3s-.2 0-.3-.2l.2.2-.2-.2.2.2a2 2 0 01-.2-.3l.1.3v-.4-.2-.2.3l.3-.6-.2.2.4-.5c.2-.2.3-.5.3-.9 0-.3-.1-.6-.3-.8a.9.9 0 00-1.4 0zm-21.5.6c1.2-1.7 2-3.6 2.5-5.7l-2.2-.3L12 32c0 .6.5 1.1 1 1.1.7 0 1.1-.5 1.2-1.1L15 22c0-.5-.5-1-1-1a1 1 0 00-1.1.7l-.4 1.5-.2.6-.1.2a14.3 14.3 0 01-1.5 2.8c-.4.5-.1 1.3.3 1.6.6.3 1.2.1 1.5-.4zm8-7c-1.1 0-2.1.6-2.7 1.5a7 7 0 00-1.1 3c-.2 1-.3 2.1-.1 3.2 0 1 .2 2 .8 2.8a3 3 0 002.5 1.4c1 0 1.9-.5 2.5-1.3.7-.8 1.1-1.8 1.3-2.8.2-1 .3-2.1.3-3.2 0-1.3-.1-2.5-.9-3.5-.7-1-2-1.5-3-1-.5.2-.9.7-.7 1.3.2.5.7 1 1.3.7h.2c.1 0-.2 0 0 0h.1s-.2 0 0 0h.1l.2.1.1.1.2.2s-.1-.1 0 0v.2s.2.2.1 0v.2l.1.3v.3c.1 0 .2.1 0 0l.1.1V27.6l-.1.1a11.2 11.2 0 01-.4 1.8l-.2.3v.2l-.2.2s.1-.1 0 0l-.3.3c-.2.2.1 0 0 0l-.3.2s-.2.1 0 0h-.2l-.2.1h-.2s-.2 0 0 0c.1 0 0 0 0 0h-.2c-.2 0 0 0 0 0l-.2-.1c-.1 0 0 0 0 0l-.2-.2c-.1-.2.1.2 0 0a2.3 2.3 0 01-.2-.5s0 .1 0 0c-.2-.3-.3-.7-.3-1V29s0 .1 0 0v-.3a11.1 11.1 0 010-2v-.2c0 .1 0 0 0 0V26a9.8 9.8 0 01.4-1.3v-.2c0-.1 0 .2 0 0l.2-.3.1-.3h.1c0-.2-.1 0 0 0l.4-.5s-.1.1 0 0h.1l.2-.2s-.2.1 0 0h.2s.3 0 0 0c.6-.1 1.1-.5 1.1-1.1 0-.6-.5-1.2-1-1.1z"/>
      <path fill="#24CE30" d="M31.7 14.8C29.7 12.7 30 11 30 9s1.6-4.9 3.8-6c2.2-1.2 5.6-1.1 7 .1 1.4 1.3 3.2 2.6 3.4 6.8.3 4-3 5.3-4.1 6-1.2.5-6.2 1.2-8.4-1.2z"/>
      <path fill="#4C4C4C" d="M36.5 1.5c-1.6 0-3.1.7-4.4 1.8-1.2 1-2 2.6-2.5 4.2-.4 1.7-.5 3.5 0 5.3.3 1.7 1.2 3.3 2.7 4.1 1.5.8 3.3 1.1 5 1.1 1.6 0 3.2-.5 4.5-1.4a7.5 7.5 0 002.8-3.5c.6-1.7.4-3.7 0-5.4a9.4 9.4 0 00-2.4-4.4 6.3 6.3 0 00-4.7-1.8h-1.2c-.6 0-1.1.5-1 1.1 0 .6.4 1.2 1 1.1h1.1a6.2 6.2 0 01.8 0h.2l1 .3c.2.1-.1 0 0 0l.2.1a5.3 5.3 0 01.8.6c-.2-.2 0 0 0 0 .2 0 .2.1.3.2l.7.8c-.2-.3 0 0 0 0l.1.2a6.6 6.6 0 01.5 1l.1.1.1.2c.3.7.5 1.4.6 2.2v.3c0 .3 0-.3 0 0a11.4 11.4 0 010 1.5v.2a6 6 0 01-.2 1.1c.1-.2 0 0 0 0a6.6 6.6 0 01-.5 1l-.2.1-.6.7-.2.1-.3.3-.8.5-.2.1s.2 0 0 0a6.4 6.4 0 01-1.6.4c-.3 0 .2 0 0 0h-.3a7.4 7.4 0 01-1.7 0H36h-.6a11.4 11.4 0 01-1.6-.5l-.3-.1s.2 0 0 0l-.4-.3-.3-.1c.2.1 0 0 0 0l-.4-.5s-.2-.2 0 0l-.1-.2a4.8 4.8 0 01-.4-.7s-.1-.3 0-.1l-.1-.2a9.2 9.2 0 01-.3-.8v-.5l-.1-.3v-.2-1.1-.5-.3s0-.1 0 0v-.2a10 10 0 01.6-1.9c-.1.3 0-.1 0-.1l.6-1 .1-.3.5-.5a5.1 5.1 0 01.5-.6c-.2.2.1 0 .2 0a7 7 0 011-.6h-.1L35 4l.6-.2h.1s.4-.1.2 0h.5c.6 0 1-.6 1-1.2a1 1 0 00-1-1z"/>
      <path fill="#FFF" d="M34.7 11.8c.5.6 1.1 1.1 1.8 1.6h.5c.4 0 .6-.4.5-.8 0-.2-.2-.4-.3-.5l-.4-.2h.2c-.5-.3-1-.7-1.3-1.2a.7.7 0 00-1 0c-.3.3-.3.8 0 1z"/>
      <path fill="#FFF" d="M38 13.2l3-4c.2-.3.3-.6.2-1 0-.3-.2-.6-.5-.7-.3 0-.5 0-.7.3l-3 4c-.3.5-.3 1 0 1.4.2.4.7.4 1 0z"/>
    </g>
  </g>
</svg>
