<svg viewBox="0 0 45 46" xmlns="http://www.w3.org/2000/svg"><g fill="none" fill-rule="evenodd"><path d="M-3 47h48V-1H-3z"/><g fill-rule="nonzero"><path d="M27.78 8.21c.45 0 6.47 2.55 9.19 8.24 2.7 5.69 4.22 12.87.6 16.77-3.61 3.9-9.8 12.43-18.38 12.28-8.6-.15-14-5.84-15.36-8.84-1.35-3-3.1-14.17-.53-17.76 2.56-3.6 7.6-11.44 13.78-11.74 6.17-.3 10.7 1.05 10.7 1.05z" fill="#FF8000"/><path d="M18.28 45.5c4.39.11 8.7-1.15 12.33-3.63a22.39 22.39 0 008.05-9.63 20.98 20.98 0 001.14-13.2 17.6 17.6 0 00-5.95-9.71A19.44 19.44 0 0023.33 5.2c-3.9-.34-7.82.48-11.28 2.35a23.42 23.42 0 00-8.5 7.95A21.74 21.74 0 000 26.45c-.14 4.1 1.1 8.13 3.51 11.44a18.83 18.83 0 0011.34 7.19c1.13.23 2.27.37 3.43.41.62 0 1.12-.5 1.12-1.13a1.16 1.16 0 00-1.12-1.14c-.55-.02-1.1-.06-1.65-.13-.07 0-.27-.03 0 0l-.16-.03-.42-.06a20.14 20.14 0 01-3.82-1.07l-.2-.08c-.16-.06.26.12 0 0l-.33-.15c-.25-.11-.5-.22-.74-.36a18.33 18.33 0 01-2.66-1.7l-.12-.1-.29-.22A25.66 25.66 0 015.68 37l-.13-.17c-.13-.16 0 0 .02.03l-.28-.37c-.6-.84-1.12-1.74-1.56-2.68-.04-.07-.31-.57-.28-.6-.02.01.1.23.02.03l-.07-.18c-.05-.1-.09-.22-.13-.34a17.28 17.28 0 01-.86-3.34l-.02-.14c-.04-.24.02.23 0 .06l-.05-.38a17.72 17.72 0 01.05-4.04l.01-.14c-.01.3-.02.17 0 .1l.05-.35a18 18 0 01.82-3.26c.14-.44.31-.86.48-1.3.06-.14-.12.27-.02.05l.06-.13a20.45 20.45 0 011.79-3.3c.25-.39.52-.77.8-1.14l.1-.14c.07-.1.08-.02-.05.06a27.8 27.8 0 01.68-.83 22.5 22.5 0 012.9-2.85l.28-.22c.14-.12-.04.03-.06.04l.14-.1a20.91 20.91 0 014.1-2.45l.33-.15c-.3.16 0 0 .09-.04l.66-.25a18.55 18.55 0 013.61-.92c.05 0 .1 0 .15-.02a18.78 18.78 0 014.73.02c.03 0 .26.04.06 0-.21-.03.02 0 .05 0l.35.06a19 19 0 013.82 1.04l.27.1.16.07c-.02 0-.26-.11-.08-.03a23.48 23.48 0 011.74.87 18.29 18.29 0 011.61 1.07c.08.05.14.11.23.16-.3-.2.07.06.14.11a15.84 15.84 0 012.26 2.27l.19.24c.12.15-.05-.05-.05-.07l.14.2a16.9 16.9 0 011.69 2.87l.14.33c.06.13-.03.05-.03-.07a18.12 18.12 0 011.22 4.5c0 .06.02.12.03.17-.05-.29-.02-.1 0-.02a18.52 18.52 0 01.1 1.2 20.41 20.41 0 01-.1 3.95c0-.02.04-.27 0-.06l-.02.16-.08.47a19.12 19.12 0 01-1 3.55l-.13.37-.06.14c.13-.27.02-.04 0 .02a20.26 20.26 0 01-2.25 3.92l-.22.31c-.04.05-.14.16.03-.04l-.1.12-.49.6a21.79 21.79 0 01-2.64 2.63l-.27.23-.15.12c-.05.04-.27.18-.02.02-.41.27-.79.58-1.2.86-.84.56-1.72 1.06-2.63 1.49l-.63.29a3.07 3.07 0 00-.13.05l-.4.15a18.95 18.95 0 01-3.53 1l-.35.06-.19.02-.12.02c.2-.02-.06 0-.08 0l-.16.02-.38.04a17.06 17.06 0 01-2.46.05c-.62 0-1.12.51-1.12 1.14 0 .62.47 1.13 1.08 1.16z" fill="#4C4C4C"/><path d="M28.41 20.2c-1.56 2.97-3.04 5.99-4.45 9.04-.25.54-.17 1.26.4 1.56.49.27 1.24.17 1.5-.4 1.42-3.06 2.9-6.08 4.46-9.06.27-.54.08-1.2-.43-1.5-.5-.3-1.16-.14-1.48.36zM23.35 19.9c-.28.1-.54.24-.76.42a2.04 2.04 0 00-.74 1.7 2.35 2.35 0 00.87 1.73c.24.2.52.35.82.46.43.15.9.15 1.33 0a2.25 2.25 0 001.6-2.13c0-.47-.11-.93-.34-1.34a1.97 1.97 0 00-1.22-1c-.7-.18-1.43.1-1.8.7-.15.24-.19.52-.12.79.12.4.47.69.9.74a1.1 1.1 0 001.11-.55l-.17.2a.6.6 0 01.1-.08l-.22.16a.83.83 0 01.08-.05l-.26.1.17-.04-.3.04h.18l-.29-.04a.7.7 0 01.13.04l-.26-.1.17.08-.22-.16.2.19-.18-.21c.08.1.14.21.2.33l-.11-.25c.05.14.1.29.12.44l-.04-.28c.02.15.02.3 0 .45l.04-.28c-.02.12-.05.24-.1.35l.1-.24c-.03.09-.09.17-.15.25l.17-.2a1.4 1.4 0 01-.22.2l.22-.16c-.09.07-.19.12-.3.17l.27-.1-.29.07.29-.04h-.26l.3.05c-.09-.01-.18-.03-.26-.07l.25.1c-.1-.04-.2-.1-.3-.17l.22.16c-.1-.08-.2-.17-.28-.27l.17.2c-.09-.1-.16-.2-.22-.33l.1.25-.1-.33.05.27a1.23 1.23 0 010-.33l-.04.27c.01-.1.05-.21.09-.3l-.1.24c.03-.09.08-.17.14-.25l-.17.2.22-.2-.22.17c.07-.05.14-.1.22-.13l-.26.1h.04c.27-.08.5-.25.64-.48a1 1 0 00-.38-1.4 1.1 1.1 0 00-.83-.1zM29.58 26.1a3.32 3.32 0 00-1.12 2.56c.03.59.26 1.15.64 1.59.38.42.9.66 1.45.69.94.06 1.87-.74 2.24-1.6.21-.44.31-.93.3-1.42a2.73 2.73 0 00-.58-1.57c-.36-.43-.88-.69-1.42-.7-.32 0-.63.06-.9.21-.28.16-.5.38-.67.65-.14.25-.18.55-.1.83.07.27.23.5.46.65.24.15.52.19.79.11.25-.09.47-.26.61-.5l.02-.03-.16.22.13-.14-.2.17.15-.09-.24.1.24-.06-.27.04h.25l-.27-.04.2.06-.24-.1c.08.03.15.08.22.13l-.2-.17.17.19-.16-.22c.06.09.12.19.16.3l-.1-.27c.04.12.08.25.1.38l-.04-.29a2 2 0 010 .48l.04-.28c-.03.16-.07.32-.13.48l.1-.26c-.07.16-.15.32-.26.47l.16-.22c-.09.12-.19.22-.3.32l.2-.17c-.11.1-.25.18-.39.24l.25-.1c-.09.03-.18.06-.27.07l.27-.04h-.25l.28.04a1.32 1.32 0 01-.24-.07l.24.11c-.1-.04-.2-.1-.29-.17l.2.16a1.45 1.45 0 01-.2-.21l.16.21a1.42 1.42 0 01-.15-.28l.1.26a1.69 1.69 0 01-.09-.37l.04.28a1.97 1.97 0 010-.43l-.04.29c.03-.16.07-.32.13-.47l-.1.26c.07-.2.17-.38.3-.54l-.16.21c.11-.15.24-.3.38-.43.4-.42.4-1.1 0-1.53a1 1 0 00-1.45 0zM8.7 26.73a15 15 0 002.51-5.61l-2.2-.3-.95 9.65c-.06.59.56 1.16 1.12 1.13.61-.01 1.1-.51 1.12-1.13l.95-9.65c.05-.56-.47-1.05-.97-1.12a1.12 1.12 0 00-1.23.82c-.1.48-.23.95-.38 1.42-.07.23-.15.44-.23.65-.01.04-.17.43-.06.18a13.4 13.4 0 01-1.6 2.82c-.35.48-.1 1.3.4 1.56.58.31 1.16.1 1.53-.41zM18.87 21.85h-1.75c-.58 0-1.16-.01-1.75-.04l-.14.6-.13.62a4.52 4.52 0 012.54-.07c.36.1.7.29.97.54.35.28.62.65.78 1.06.17.43.28.88.32 1.33a8.07 8.07 0 01-.28 2.68c-.12.4-.28.79-.5 1.15a3.7 3.7 0 01-1.8 1.64c-.4.16-.82.25-1.25.24a3.43 3.43 0 01-3.11-2.14 2.82 2.82 0 01-.18-1.29.9.9 0 01.36-.72c.2-.15.45-.22.7-.22.25-.01.49.07.68.22.2.18.3.45.25.72-.05.37.06.74.3 1.04.19.24.48.37.79.37.26 0 .52-.08.73-.24.23-.16.42-.36.58-.59a3.58 3.58 0 00.62-2.15c0-.23-.02-.46-.07-.69a2.07 2.07 0 00-.24-.6 1 1 0 00-.5-.4c-.16-.06-.33-.1-.5-.1-.34 0-.66.08-.96.23-.3.14-.58.3-.85.47-.16.1-.35.17-.54.17a.79.79 0 01-.5-.17 1.08 1.08 0 01-.33-.44.95.95 0 01-.2-.65c.07-.68.17-1.36.3-2.04.14-.67.29-1.33.46-1.98a.9.9 0 01.96-.69.55.55 0 01.2-.02c1.35.04 2.7.06 4.07.06.28-.02.56.1.73.32a1.2 1.2 0 01-.04 1.43.88.88 0 01-.72.35z" fill="#FFF"/><path d="M30.9 13.97c-2.04-2.13-1.79-3.78-1.76-5.82a7.89 7.89 0 014-6.15c2.34-1.17 6-1.12 7.5.17 1.5 1.28 3.43 2.67 3.68 6.86.26 4.2-3.17 5.45-4.46 6.09-1.3.64-6.58 1.33-8.95-1.15z" fill="#24CE30"/><path d="M36.11.53c-1.7.03-3.35.7-4.63 1.86a9.08 9.08 0 00-2.61 4.37c-.5 1.79-.55 3.68-.13 5.5.41 1.75 1.35 3.48 2.94 4.31a11 11 0 005.2 1.13c1.68 0 3.34-.49 4.77-1.42a7.77 7.77 0 002.94-3.73c.66-1.75.44-3.78-.05-5.55a9.8 9.8 0 00-2.53-4.58A6.61 6.61 0 0037.16.5c-.44 0-.9.02-1.35.04-.57.03-1.13.51-1.1 1.15.03.6.49 1.18 1.1 1.15.42-.02.83-.04 1.25-.04h.52l.31.02.2.03a7.22 7.22 0 011.02.28c.26.1-.14-.08.02 0l.2.1a5.88 5.88 0 01.88.57c-.22-.16.02.02.05.05l.2.18c.25.25.5.51.71.8-.17-.23.02.03.05.06l.1.17a7.23 7.23 0 01.58 1.03l.08.18.08.18c-.05-.12-.05-.12 0 0 .27.72.47 1.47.6 2.23l.06.32c.06.36-.01-.23.02.13l.04.54a6.42 6.42 0 01-.02.98c0 .02-.04.36 0 .12a6.27 6.27 0 01-.32 1.22c.15-.25.01-.03-.01.03a6.46 6.46 0 01-.5.9l-.16.2c-.2.25-.43.5-.67.71-.06.05-.37.35-.16.14a7.16 7.16 0 01-1.24.79c-.07.04-.14.08-.22.1a7.54 7.54 0 01-1.63.44c-.32.06.22 0-.1.02l-.24.02a8.54 8.54 0 01-1.71 0l-.3-.03c-.03 0-.35-.06-.1 0l-.49-.09a12.3 12.3 0 01-1.68-.46l-.27-.1c.04.01.2.09 0 0a5.26 5.26 0 01-.5-.28l-.23-.16c.2.13-.02-.02-.06-.06a3.83 3.83 0 01-.37-.39c-.03-.03-.2-.27-.05-.05-.04-.07-.09-.13-.12-.2a5.06 5.06 0 01-.38-.68l-.09-.2-.04-.12a7.61 7.61 0 01-.27-.9l-.1-.5-.04-.3-.02-.22a9.86 9.86 0 01-.03-1.14c0-.18.01-.35.03-.52l.03-.31v.02l.03-.19a10.27 10.27 0 01.54-2.01c-.1.26.06-.12.08-.16.17-.36.36-.71.58-1.04l.13-.2.08-.1c-.08.1-.08.1 0 0 .14-.17.27-.34.42-.5l.39-.37.2-.18a7.28 7.28 0 011.12-.68c.05-.03.2-.08-.02 0 .11-.05.22-.1.33-.13l.6-.18.16-.03c.07-.02.42-.12.14-.03.2-.04.41-.05.62-.04.6 0 1.1-.51 1.1-1.15 0-.63-.5-1.15-1.1-1.15v.02z" fill="#4C4C4C"/><path d="M33.35 9.83c.7.67 1.49 1.28 2.33 1.8.32.18.73.15 1.02-.05.3-.2.42-.54.33-.86a.95.95 0 00-.43-.49l-.43-.29.18.13a13.6 13.6 0 01-1.7-1.4 1.01 1.01 0 00-1.3 0 .77.77 0 000 1.16z" fill="#FFF"/><path d="M36.57 11.51c1.2-1.03 2.4-2.08 3.57-3.15.31-.29.3-.74-.03-1.03a.97.97 0 00-1.2-.01 134.77 134.77 0 01-3.56 3.15.67.67 0 00-.25.72c.08.27.32.47.62.54.3.06.63-.02.85-.22z" fill="#FFF"/></g></g></svg>
