<svg xmlns="http://www.w3.org/2000/svg" width="48" height="48">
  <g fill="none" fill-rule="evenodd">
    <path d="M0 48h48V0H0z"/>
    <g fill-rule="nonzero">
      <path fill="#FF8000" d="M30.8 9.2c.4 0 6.5 2.6 9.2 8.2 2.7 5.7 4.2 13 .6 16.8-3.6 4-9.8 12.4-18.4 12.3-8.6-.2-14-5.8-15.4-8.8-1.3-3-3-14.2-.5-17.8 2.6-3.6 7.6-11.4 13.8-11.7 6.2-.3 10.7 1 10.7 1z"/>
      <path fill="#4C4C4C" d="M21.3 46.5c4.4.1 8.7-1.2 12.3-3.6a22.4 22.4 0 009.7-16.1c.2-2.3 0-4.6-.5-6.8A17.6 17.6 0 0026.3 6.2c-3.9-.3-7.8.5-11.2 2.4A23.4 23.4 0 003 27.5 18.3 18.3 0 0017.8 46l3.4.4c.6 0 1.1-.5 1.1-1.1 0-.7-.5-1.2-1.1-1.2l-1.7-.1s-.2 0 0 0h-.1L19 44a19.2 19.2 0 01-3.9-1l-.2-.1c-.1-.1.3 0 0 0l-.3-.2-.7-.4a18.2 18.2 0 01-2.7-1.7c.2.2 0 0-.1 0l-.3-.3A26.7 26.7 0 018.7 38l-.2-.2c0-.1 0 0 0 0l-.2-.3-1.6-2.7-.2-.6s0 .2 0 0l-.1-.1-.1-.4a17.1 17.1 0 01-.9-3.3v-.2V30a17.8 17.8 0 010-4v-.2.1-.3a18 18 0 01.9-3.3l.4-1.3c.1-.1 0 .3 0 0a23 23 0 012.7-4.5v-.1c.2-.1.2 0 0 0l.3-.3a31.5 31.5 0 013.3-3.3l.3-.3c.1 0 0 0 0 0a16.5 16.5 0 013-1.9l1.2-.6.3-.1c-.3.1 0 0 0 0l.7-.3a18.6 18.6 0 013.7-1h.1c-.3.1-.1 0 0 0a18.7 18.7 0 014.7 0s.3.1.1 0c-.2 0 0 0 0 0l.4.1a21.6 21.6 0 013.8 1l.3.2h.1s-.2 0 0 0l.6.3a19 19 0 012.7 1.6l.2.2.2.1a15.7 15.7 0 012.2 2.3l.2.2c.2.2 0 0 0 0l.1.1a16.7 16.7 0 011.7 3l.2.3v-.1.2a18 18 0 011.2 4.3v.1c0-.2 0 0 0 0a13.9 13.9 0 010 1.2 20.4 20.4 0 010 4s0-.3 0 0A32.5 32.5 0 0140 31l-.2.7-.2.4v.1c.1-.3 0 0 0 0a20.3 20.3 0 01-2.3 4l-.2.3s-.1.1 0 0a16.7 16.7 0 01-2.7 2.8l-.5.5-.3.2-.1.1s-.3.2 0 0l-1.2.9-2.6 1.5c-.3 0-.5.2-.7.3-.2 0 0 0 0 0H29a11.2 11.2 0 01-1.8.7 19.1 19.1 0 01-2.1.5H24.5s-.3.1-.1 0c.2 0 0 0 0 0l-.2.1h-.4a15.7 15.7 0 01-2.5 0c-.6 0-1.1.6-1.1 1.2s.5 1.2 1 1.2z"/>
      <path fill="#FFF" d="M31.4 21.2l-4.4 9c-.3.6-.2 1.3.4 1.6.4.3 1.2.2 1.5-.4l4.4-9c.3-.6.1-1.3-.4-1.6a1 1 0 00-1.5.4zm-5-.3l-.8.4a2 2 0 00-.7 1.7c0 .5.1.9.4 1.3a2.6 2.6 0 001.2 1H28c1-.4 1.6-1.3 1.6-2.2 0-.5-.1-1-.4-1.4a2 2 0 00-1.2-1c-.7-.1-1.4.1-1.8.7a1 1 0 00-.1.8c.1.4.5.7.9.8a1.1 1.1 0 001.1-.6l-.2.2h.1l-.2.1h-.2.2-.3.2-.3.1-.2.1l-.2-.1.2.2-.2-.2.2.3v-.3.5-.3.4-.2.3-.2l-.1.2.2-.2-.3.2.3-.1-.3.1H27 27.4 27h.3l-.3-.1.2.1-.3-.2.2.2-.2-.4V22.8v.2l.1-.2-.2.1.2-.1-.2.1c.3 0 .5-.3.7-.5a1 1 0 00-.4-1.4c-.3-.1-.6-.2-.9-.1zm6.2 6.2c-.7.6-1.2 1.6-1.1 2.6 0 .5.2 1.1.6 1.5.4.5.9.7 1.4.7 1 .1 2-.7 2.3-1.6.2-.4.3-.9.3-1.4 0-.6-.2-1.1-.6-1.5a1.9 1.9 0 00-2.3-.5c-.3.1-.5.3-.7.6-.1.3-.2.6 0 .8 0 .3.2.5.4.7.2.1.5.2.8.1.2 0 .4-.3.6-.5l-.2.2.2-.1-.2.1h.1-.2.2-.3.3-.3.2-.2.2l-.2-.1.2.2-.2-.2.2.3-.1-.3v.4-.3.5-.3.5-.3l-.2.5.2-.3-.3.4.2-.2-.4.2H33.4h.3l-.2-.1.2.1c-.1 0-.2 0-.2-.2l.1.2-.1-.2v-.2V29.3v-.2.3l.3-.6-.2.3.4-.5c.4-.4.4-1 0-1.5a1 1 0 00-1.4 0zm-20.9.6a15 15 0 002.5-5.6l-2.2-.3-1 9.7c0 .6.6 1.1 1.2 1.1s1-.5 1.1-1.1l1-9.7c0-.5-.5-1-1-1.1-.6 0-1.1.3-1.2.8l-.4 1.4-.3.7s-.1.4 0 .2l-.2.3-1.4 2.5c-.4.5-.1 1.3.4 1.5.6.4 1.1.2 1.5-.4zm10.2-4.9h-3.5l-.2.6-.1.6a4.5 4.5 0 012.5 0c.4 0 .7.2 1 .5.4.3.6.6.8 1l.3 1.4v1.4c0 .4-.1.9-.3 1.3 0 .4-.3.8-.5 1.1l-.7 1-1 .7-1.3.2c-.5 0-1 0-1.3-.3a3.4 3.4 0 01-1.8-1.8c-.2-.5-.3-.9-.2-1.3 0-.3.1-.6.4-.8l.7-.2.6.2c.2.2.3.5.3.8 0 .3 0 .7.3 1 .2.2.5.4.8.4.2 0 .5-.1.7-.3l.6-.5.4-.8a3.6 3.6 0 00.2-1.4V27a2 2 0 00-.3-.6 1 1 0 00-.5-.4h-.5l-1 .1a7 7 0 00-.8.5 1 1 0 01-.6.2c-.1 0-.3 0-.5-.2a1 1 0 01-.3-.4 1 1 0 01-.2-.7 19.5 19.5 0 01.8-4c0-.4.5-.7 1-.7H21.8c.3 0 .6.2.7.4.2.2.3.4.3.7 0 .3-.1.5-.3.7-.2.2-.4.4-.7.3z"/>
      <path fill="#24CE30" d="M34 15C31.8 12.8 32 11.2 32 9c0-2 1.7-5 4-6.1 2.4-1.2 6-1.1 7.5.2 1.5 1.2 3.5 2.6 3.7 6.8.3 4.2-3.1 5.5-4.4 6.1-1.3.7-6.6 1.4-9-1.1z"/>
      <path fill="#4C4C4C" d="M39.1 1.5c-1.7 0-3.3.7-4.6 1.9a9 9 0 00-2.6 4.4c-.5 1.7-.6 3.6-.2 5.5.4 1.7 1.4 3.4 3 4.3a11 11 0 005.2 1.1c1.7 0 3.3-.5 4.8-1.4a7.8 7.8 0 002.9-3.7c.6-1.8.4-3.8 0-5.6A9.8 9.8 0 0045 3.4c-1.3-1.3-3-2-4.8-1.9h-1.4c-.6 0-1.1.5-1 1.2 0 .6.4 1.2 1 1.1H41.1c-.1 0-.1 0 0 0l1 .3c.3.1-.1 0 0 0l.2.1a5.9 5.9 0 011 .6c-.3-.2 0 0 0 0 0 .1 0 .2.2.2l.7.8c-.2-.2 0 0 0 0a6.9 6.9 0 00.7 1.3v.2l.2.2c0-.2 0-.2 0 0l.6 2.2v.4a11 11 0 010 1.5v.2a6.2 6.2 0 01-.3 1.2 6.1 6.1 0 01-.5 1l-.1.1-.7.7-.2.2-.4.3-.8.5h-.2s.2 0 0 0a7.7 7.7 0 01-1.6.5h-.4a8.2 8.2 0 01-1.7 0h-.3-.6a12.5 12.5 0 01-1.7-.5l-.2-.1s.2 0 0 0l-.5-.3-.3-.2c.2.1 0 0 0 0l-.4-.4s-.2-.3 0 0l-.2-.3a5.1 5.1 0 01-.4-.7s-.1-.3 0-.2c0 .2 0 0 0 0a9.1 9.1 0 01-.3-1l-.1-.5-.1-.3v-.2-1.1-.6-.3s0-.1 0 0v-.1a10.3 10.3 0 01.6-2c-.1.2 0-.2 0-.2l.6-1 .2-.2v-.2c0 .1 0 .2 0 0l.5-.4.4-.4.2-.2c-.2.2 0 0 .1 0l1-.7s.2 0 0 0l.3-.1.6-.2h.2s.4-.1.1 0h.6c.6 0 1.1-.6 1.1-1.2 0-.7-.5-1.2-1-1.2z"/>
      <path fill="#FFF" d="M36.3 10.8c.8.7 1.5 1.3 2.4 1.8.3.2.7.2 1 0 .3-.2.4-.6.3-.9a1 1 0 00-.4-.5l-.4-.3.2.2-1.8-1.4a1 1 0 00-1.3 0c-.3.3-.3.8 0 1.1z"/>
      <path fill="#FFF" d="M39.6 12.5L43 9.4c.4-.3.3-.8 0-1a1 1 0 00-1.2 0l-3.6 3c-.2.3-.3.5-.2.8 0 .3.3.5.6.5s.7 0 .9-.2z"/>
    </g>
  </g>
</svg>
