<?xml version="1.0" encoding="UTF-8"?>
<svg width="173px" height="121px" viewBox="0 0 173 121" version="1.1" xmlns="http://www.w3.org/2000/svg" xmlns:xlink="http://www.w3.org/1999/xlink">
    <title>79E90A3D-0434-442B-AFCD-10272E54E294@1x</title>
    <g id="Page-1" stroke="none" stroke-width="1" fill="none" fill-rule="evenodd">
        <g id="768_RW_StampCards_MVP_Error" transform="translate(-298.000000, -418.000000)">
            <g id="Log-in-card" transform="translate(188.000000, 355.000000)">
                <g id="illustrations-complex-/-object-/-LOGIN_PROMO_FULL-COLOUR/-15%" transform="translate(96.000000, 24.000000)">
                    <polygon id="bounding-box" points="0 200 200 200 200 0 0 0"></polygon>
                    <g id="JUSTEAT_SAD_BAG" transform="translate(13.513514, 39.189189)" fill-rule="nonzero">
                        <g id="BACKGRUND" fill="#C9ECF2">
                            <polygon id="Path" points="0.786425523 0.317191628 23.1471246 120.03737 173.283621 28.0386913"></polygon>
                        </g>
                        <g id="ARM" transform="translate(63.176184, 19.398496)" fill="#4C4C4C">
                            <path d="M15.343162,3.26628734 C9.1120504,0.710404389 2.99628124,5.36342207 0.983031904,11.1488925 C-1.01448893,16.8976631 0.870310912,24.628226 7.10142248,26.8171103 C8.37805324,27.2627515 8.93641536,25.2442593 7.6597846,24.7933753 C2.50083316,22.9819752 1.41556594,16.2763869 3.0041455,11.7072546 C4.6844747,6.88122333 9.65206259,3.18240195 14.8005283,5.28740093 C16.0483235,5.81168462 16.5909571,3.77222109 15.3562691,3.26628734 L15.343162,3.26628734 Z" id="Path"></path>
                            <path d="M14.6301362,5.16943711 C15.2854908,6.62694574 16.57785,7.72007722 18.2450721,7.66502743 C19.9122942,7.60997765 21.1627108,6.48276773 21.6319447,4.95185938 C22.0277789,3.6595001 20.0040439,3.11686649 19.6082097,4.39611868 C19.3801463,5.13798009 18.7614916,5.65439951 17.9593375,5.55740703 C17.1571835,5.46041455 16.7508636,4.79981711 16.4415363,4.11038407 C15.888417,2.88356025 14.0822597,3.94785613 14.6301362,5.15895143 L14.6301362,5.16943711 Z" id="Path"></path>
                            <path d="M15.631518,5.30837228 C16.834749,6.09479781 18.0170087,4.97020931 18.7169275,4.06057712 C19.4168462,3.15094493 19.8100589,1.75635034 19.0314977,0.731375737 C18.6880919,0.28049177 18.1271083,0.044564113 17.5949604,0.353891485 C17.1519407,0.616033327 16.8740703,1.33430197 17.2200975,1.78780736 C17.4534038,2.09713473 17.3642756,2.34354806 17.1598049,2.65287543 C17.0472041,2.82825189 16.9191163,2.99318683 16.7770778,3.14570209 C16.6931924,3.24007316 16.6040642,3.3318228 16.514936,3.40784393 C16.339301,3.502215 16.4048364,3.5310506 16.7062995,3.49697216 C15.5764682,2.74986791 14.5252794,4.56388945 15.6577322,5.30575086 L15.631518,5.30837228 Z" id="Path"></path>
                            <path d="M16.8268848,4.39349726 C17.4638895,2.65549685 16.7351351,0.613411908 14.7297501,0.427291201 C14.1661451,0.374862833 13.6811827,0.951574883 13.6811827,1.47585857 C13.6936772,2.04971125 14.1558974,2.51193138 14.7297501,2.52442593 C15.2383052,2.57161146 14.8870352,3.64115017 14.8162569,3.83513514 C14.6196505,4.35941882 15.0338346,4.9833164 15.5476326,5.12487299 C16.104385,5.26842594 16.6747563,4.94498367 16.8373705,4.39349726 L16.8268848,4.39349726 Z" id="Path"></path>
                        </g>
                        <g id="Layer_10" transform="translate(46.399106, 33.554156)">
                            <path d="M25.7737858,0.0629140419 L22.6280837,21.0735826 L18.0012802,27.9102418 L23.5927657,36.9619996 L15.3300549,45.1172323 L0.0760211339,45.6808372 L5.69896363,70.7940256 L6.62432432,71.4887015 L74.4482829,71.4887015 C74.4482829,71.4887015 79.7199553,58.6122942 80.7160943,56.3080675 C81.7122333,54.0038407 86.941963,41.8719163 86.941963,41.8719163 L87.3718756,19.0655761 L89.4690104,14.4807153 L80.870758,2.38549075 L66.8356838,4.59534647 L44.739748,0.621276163 L38.9044706,0.427291201 L36.7863646,0.254277586 L35.1610851,0.458748222 L25.7737858,0.0629140419 Z" id="Path" fill="#FFFFFF"></path>
                            <path d="M5.74614916,71.4991872 L0.0838853891,45.6913229 C0.0838853891,45.6913229 18.4469214,44.9048974 21.9648649,45.6284089 C25.4828084,46.3519203 39.0040845,48.2760415 41.124812,48.5512904 C43.2455395,48.8265393 49.3482016,47.9352571 49.3482016,47.9352571 L55.6920341,46.8866897 L66.4005283,47.8644788 L72.8098964,41.6805527 L75.0092664,35.4127413 L73.7378785,22.5677911 L77.9976834,11.6364763 L80.8655151,2.38286934 L89.4637675,14.4780939 L87.5789677,20.1849218 L87.5789677,41.1379191 L73.7378785,71.4991872 L5.74614916,71.4991872 Z" id="Path" fill="#FF8000"></path>
                            <path d="M37.3735623,36.0156675 C38.6236861,34.0955974 39.9829404,32.248832 41.4446251,30.4844747 C42.1550295,29.6325137 42.891648,28.7989027 43.6466165,27.986263 C43.9963248,27.5532473 44.3821869,27.150723 44.8000406,26.7830319 C45.3584028,26.3609835 45.6703516,26.4868116 46.3125991,26.6676895 C48.4216128,27.2204478 50.3659119,28.2744342 51.9801057,29.7399919 C53.4926641,31.1608007 54.6985166,32.8542369 55.8912619,34.5424304 C56.661959,35.6355619 58.4812233,34.5896159 57.7000406,33.493863 C56.2870961,31.4963422 54.8531802,29.446393 52.9814875,27.8394635 C51.0272081,26.1971919 48.7081554,25.0466541 46.218228,24.484048 C45.1146109,24.2219061 44.3255639,24.3477342 43.4814672,25.1394026 C42.4566404,26.1350138 41.4861837,27.1851022 40.5743142,28.2851047 C38.7600444,30.4007788 37.0849358,32.6319219 35.5595407,34.9644788 C34.8176793,36.0969315 36.6317009,37.1481203 37.3709409,36.0130461 L37.3735623,36.0156675 Z" id="Path" fill="#FF8000"></path>
                            <path d="M39.583418,36.9148141 C40.0546592,36.7737489 40.5498421,36.7309223 41.0383052,36.788986 L40.0290591,35.4625483 C39.6358464,36.7208291 38.7393213,39.0958342 39.4602113,40.3672221 C40.3514936,41.9400732 42.3437716,40.498293 43.5705954,40.3436293 C45.5183093,40.0998374 47.2589311,41.1851047 49.1961593,41.0776265 C51.0311522,40.9753912 52.7639098,40.1548872 54.6303597,40.3750864 C55.3748425,40.4615932 55.7365983,39.6384678 55.6396058,39.0460272 C55.3769871,37.4157017 54.9636525,35.8132623 54.4049177,34.2593172 L53.673542,35.5490551 C54.8143517,35.3596352 55.9394409,35.0853728 57.0394432,34.7285511 C58.3186954,34.314367 57.7708189,32.2880106 56.4810811,32.7048161 C55.3812259,33.0627982 54.2561149,33.3379421 53.1151798,33.5279415 C52.5571219,33.6822023 52.229709,34.2595757 52.3838041,34.8176793 C52.9425389,36.3716244 53.3558735,37.9740638 53.6184922,39.6043894 L54.6303597,38.2779516 C52.1924406,37.992217 49.9118065,39.4025401 47.4974802,38.7786426 C46.3650274,38.4876651 45.2797602,38.1678521 44.0896363,38.2019305 C43.5504512,38.2189726 43.0141237,38.2874399 42.4879496,38.4064011 C41.9295875,38.5322292 41.1221906,39.0355416 40.5612071,39.0014631 L41.3030685,39.3081691 C41.2086974,39.2111766 41.5416176,37.9397887 41.5861817,37.735318 C41.7093883,37.1559846 41.8692949,36.5897582 42.0449299,36.0235318 C42.2625076,35.3209917 41.6805527,34.7600081 41.0330624,34.6970941 C40.3552339,34.630199 39.6708696,34.6988137 39.019813,34.8989433 C37.7274538,35.2738061 38.2779516,37.3001626 39.5781752,36.9200569 L39.583418,36.9148141 Z" id="Path" fill="#FF8000"></path>
                            <path d="M44.8052835,27.7634424 C43.1486218,29.7018004 41.2988407,31.4663827 39.2845763,33.029872 L40.7682991,34.5135948 C42.9936242,32.7629836 45.0356715,30.7912004 46.8630969,28.6285105 C47.2728156,28.2187917 47.2728156,27.5545064 46.8630969,27.1447877 C46.4533782,26.735069 45.7890929,26.7350689 45.3793741,27.1447876 C43.8687108,28.3675014 42.4965172,29.7520017 41.28734,31.2735216 C40.6214997,32.1123755 41.5180248,33.7009551 42.5587279,32.9197724 L46.8211542,29.7216419 L45.3872384,28.2851047 C44.2708319,29.8345904 43.3333881,31.5054565 42.5928063,33.2657996 C42.2205649,34.1439748 43.0410689,35.3209917 44.0267222,34.7023369 C46.288337,33.2804127 48.3836648,31.6097779 50.2735623,29.7216419 C51.2330014,28.7648242 49.7807356,27.3309084 48.7898395,28.2405405 C46.3650274,30.4582605 44.000508,32.6969518 41.9951229,35.3183702 C41.3607397,36.1414956 42.603292,37.3473481 43.4290388,36.7522861 L47.8854501,33.5384271 L46.6140622,31.8921764 C45.1479537,33.2326886 43.8654596,34.7611043 42.7998984,36.4377159 C42.2231863,37.3368624 43.3530177,38.3828084 44.2338143,37.8716318 C46.7224434,36.4250992 49.0586214,34.7309311 51.2067872,32.8149157 L49.7230644,31.3311928 C48.129242,32.7572445 46.5773623,34.2147531 45.6624873,36.1886812 C45.4449096,36.6552936 45.4842308,37.3814265 46.0399716,37.622597 C46.7204768,37.958992 47.5044909,38.0200231 48.2288559,37.7929892 C48.6325544,37.6671611 49.3141231,37.4023979 49.5841292,37.077342 C50.0664702,36.9515139 50.1084129,36.707722 49.7099573,36.3433448 L49.544808,36.6998578 C48.6089616,37.9660028 49.6339362,39.7878886 51.1779516,39.5336111 C52.8976021,39.2504979 53.1178013,37.478419 52.6459459,36.1047958 C51.8437919,33.7795976 52.1845763,31.776834 52.7665312,29.4306645 L50.7427962,29.4306645 C51.2019758,30.7842579 51.7682453,32.0991252 52.4362325,33.3627921 L53.8701483,31.9262548 L49.2092664,28.995509 C48.1266206,28.3139403 46.8159114,27.021581 45.4632595,27.2260516 C45.104163,27.3179259 44.823758,27.5983308 44.7318838,27.9574274 C44.6099628,28.3962168 44.7330838,28.8666793 45.0543182,29.189494 C45.3190377,29.4596976 45.7118389,29.5606748 46.07405,29.4516358 C47.2615525,29.0033733 47.1226174,27.5930502 46.5826052,26.6650681 C46.3340499,26.265935 45.8567422,26.0722602 45.4003455,26.1853485 C43.9742938,26.426519 43.423796,27.967913 42.6924202,29.0295875 C41.686917,30.459789 40.4989865,31.7525887 39.1587482,32.8752083 L40.804999,34.1439748 C41.3746626,33.2735198 41.8260095,32.3311569 42.1471652,31.3416785 C42.4879496,30.3167039 41.1143264,29.622028 40.3960577,30.3219468 C39.7010009,30.998523 39.1639297,31.8202419 38.8232067,32.7284089 C38.4955294,33.5541557 39.646332,34.4323308 40.3646007,33.91329 C41.8928876,32.8018086 43.3268035,31.5933347 44.7869336,30.3979679 C45.8617151,29.5145499 48.147592,28.0386913 49.1489738,29.84747 L49.526458,28.4109327 C46.4055922,29.9021398 44.0403048,32.617524 42.9912619,35.9134322 L44.532656,35.2869132 C43.751626,34.9477115 43.0677036,34.4187754 42.5429994,33.7481406 C41.8797805,32.8725869 40.2545011,33.3234708 40.6267425,34.5581589 C40.9913304,35.7439872 41.1984492,36.9725984 41.2427759,38.2124162 C41.2663686,38.8546637 41.9007519,39.4523471 42.571835,39.2242837 C45.2725481,38.2938476 48.1253635,37.8846505 50.9787238,38.0184312 C51.712721,38.0525097 52.370697,37.077342 51.8857346,36.4455802 C50.5630234,34.7281106 49.6187253,32.7501768 49.1148953,30.6417598 C48.8527535,29.5145499 46.957468,29.7242634 47.0544605,30.9196302 L47.7098151,38.7969925 L49.2826661,37.8926031 C48.2340988,37.3106482 47.1357244,37.1061776 45.9534647,36.9751067 C44.6244056,36.8414143 43.11709,36.8702499 42.0213371,35.9763463 C41.2191831,35.3183702 41.0514123,34.026011 40.0788661,33.5987198 C38.9175777,33.092786 37.6776468,34.2933957 36.770636,34.8674863 C35.8007112,35.4835196 36.4036375,37.1533631 37.5780329,36.7837431 L39.0014631,36.338102 C40.2833367,35.9344036 39.7354603,33.9080471 38.443101,34.314367 L37.0222922,34.7626295 L37.8296891,36.6788864 C38.393294,36.3197521 39.1403983,35.630319 39.8272099,35.5149766 L39.019813,35.4101199 C39.4366186,35.6224548 39.840317,36.770636 40.2545011,37.1926844 C40.892281,37.8276145 41.6723392,38.3012212 42.5298923,38.5741719 C44.3648852,39.182341 46.4856127,38.7419427 48.2209917,39.7013818 C48.868482,40.0605162 49.8672424,39.6227393 49.7938427,38.7969925 L49.1411095,30.9327372 L47.0859175,31.1948791 C47.6281741,33.4835852 48.6444435,35.633111 50.0690916,37.5046332 L50.973481,35.9317822 C47.9312189,35.7908496 44.8896636,36.2248493 42.00823,37.2110343 L43.3346678,38.2229018 C43.2872115,36.7946679 43.0545836,35.3786336 42.6426133,34.0102825 L40.7263564,34.8176793 C41.4350876,35.7980112 42.3776675,36.5855972 43.4683601,37.108799 C43.7511008,37.2651587 44.0893712,37.2853247 44.3886861,37.1636644 C44.688001,37.0420041 44.9162776,36.7915579 45.0097541,36.48228 C45.9201264,33.7140915 47.9437772,31.4510228 50.5933753,30.2380614 C51.117659,29.991648 51.2251372,29.2655151 50.9682382,28.8041455 C49.9852063,27.0294452 47.791079,26.5628328 45.9691933,27.2312945 C44.8996545,27.6245072 44.0057509,28.3427759 43.1433042,29.0662873 C41.8928876,30.1148547 40.6372282,31.1634221 39.3134119,32.1123755 L40.8521845,33.2972567 C41.0815172,32.7339341 41.4324011,32.2281959 41.8797805,31.8161553 L40.1077017,30.8016663 C39.8344721,31.6159062 39.4536144,32.3899642 38.9752489,33.1032717 C38.2858159,34.1518391 39.7616745,35.1060354 40.6241211,34.3720382 C41.6896117,33.4708599 42.6649954,32.4682604 43.536517,31.3783784 C43.9113798,30.9065231 44.2731355,30.4241821 44.6086771,29.9234912 C44.9442187,29.4228002 45.3217029,28.3270473 45.9377362,28.2221906 L44.7528551,27.7398496 L44.8498476,28.1461695 L45.5838447,27.4121723 L45.4973379,27.4462508 L46.5196911,27.7083926 L46.4384271,27.6140215 L46.700569,28.6337533 L46.7267832,28.5184109 L45.9954074,29.2497866 L46.1893924,29.220951 L45.3819955,29.1160943 C46.6324121,29.6954278 47.8068076,30.6076814 48.9733388,31.3416785 L52.7848811,33.7402764 C53.7128632,34.3248527 54.6880309,33.1950213 54.218797,32.3063605 C53.6350626,31.2020843 53.140657,30.0528545 52.740317,28.869681 C52.4231254,27.936456 50.9787238,27.8211136 50.716582,28.869681 C50.3338549,30.4189392 49.9485064,32.0153831 49.977342,33.6223125 C49.9859437,34.384034 50.0997405,35.140915 50.315505,35.8714895 C50.4134537,36.2051751 50.5316363,36.5325849 50.6693965,36.8519 C50.6897976,37.1257571 50.8238211,37.3785958 51.0390165,37.5491973 C51.257468,38.0000813 51.4112579,37.956391 51.5003861,37.4181264 C52.0430197,36.5871368 51.8778704,35.1741922 50.9289169,34.7180654 C50.4879263,34.5231841 49.9869182,34.5146765 49.5395651,34.6944727 C48.9130461,34.909429 47.7570006,36.0890673 47.0806747,35.7954684 L47.4738874,37.2241414 C48.3206056,35.4153627 49.7387929,34.1020321 51.2067872,32.7913229 C52.2160333,31.889555 50.7296891,30.4136964 49.7230644,31.3076001 C47.7042089,33.0986147 45.5083895,34.6796047 43.1695184,36.0261532 L44.6060557,37.4600691 C45.5828236,35.939753 46.7550064,34.5542857 48.0925422,33.3391993 C48.9549888,32.5527738 47.7989433,30.9799228 46.8211542,31.6929486 L42.3647429,34.9068076 L43.7986588,36.3407234 C45.6887015,33.881833 47.9929283,31.7820768 50.2683194,29.6928063 L48.7845966,28.2117049 C47.0225314,29.970123 45.0697211,31.5263923 42.9624263,32.8516155 L44.3989636,34.2855314 C45.1379354,32.5244015 46.0754786,30.8533581 47.1933957,29.3048364 C47.791079,28.4764682 46.587848,27.247023 45.7568584,27.8709205 L41.494432,31.069051 L42.76582,32.7179232 C43.9749972,31.1964032 45.3471908,29.8119029 46.8578541,28.5891892 L45.3741313,27.1054664 C43.5517607,29.2828927 41.5112727,31.2680424 39.2845763,33.029872 C38.2202804,33.8661045 39.7144889,35.3288559 40.7682991,34.5135948 C42.7819859,32.952308 44.6309421,31.1894316 46.2863849,29.252408 C47.1619386,28.2326763 45.6834586,26.7437106 44.8052835,27.7713066 L44.8052835,27.7634424 Z" id="Path" fill="#FF8000"></path>
                            <path d="M53.3013005,34.2435887 L53.0627515,34.1754318 L53.4376143,32.741516 C51.5554359,33.9866897 49.3377159,36.2463524 51.0285308,38.5951433 C51.2674032,39.0022997 51.7488948,39.1996433 52.2048076,39.0772506 C52.6607203,38.9548579 52.9786428,38.5429065 52.9814875,38.0708596 C53.1387726,36.1860597 53.5948994,34.0758179 53.4114001,32.1936395 C53.2462508,30.473989 51.856899,30.2144686 50.4020118,30.4713676 C49.4999148,30.6332257 48.607309,30.8441257 47.728165,31.1031294 C46.5852266,31.4360496 45.6782158,31.9314977 44.4802276,31.6667344 C43.1013615,31.3600284 41.8037594,31.2866287 41.237533,32.8568584 C40.7787848,34.1282463 42.8103841,34.6761227 43.261268,33.4152205 C43.1013615,33.8503759 45.8617151,33.8765901 46.1107498,33.8215403 C47.295631,33.5593985 48.4254623,33.0534647 49.6129648,32.772973 C49.8882138,32.7100589 51.1045519,32.2775249 51.3326153,32.5108311 C51.5030075,32.6864662 51.2225157,33.9971754 51.198923,34.2566958 L50.8843528,38.0656167 L52.8399309,37.5413331 C51.9224345,36.2699451 53.5555781,35.1820565 54.4966673,34.5555375 C54.982746,34.2530746 55.1473919,33.6232755 54.8715302,33.1216216 C54.3026824,31.9734404 52.6302174,31.727027 51.8201991,32.7677301 C51.0101809,33.8084332 52.4729323,35.3131274 53.3013005,34.2488315 L53.3013005,34.2435887 Z" id="Path" fill="#FF8000"></path>
                            <path d="M52.4283682,36.4010161 C49.783357,36.9672424 47.2903881,37.5308474 44.564113,37.4207478 C42.3726072,37.3316196 40.4904288,37.8611461 38.8415566,39.3422475 L40.322658,39.3422475 C39.6964014,38.6914015 38.8113159,38.3556463 37.9109531,38.4273725 L38.8179638,40.0002235 L41.2218045,35.887218 C41.9059947,34.7180654 40.0945946,33.6616338 39.4130258,34.8386507 L37.0065637,38.9516562 C36.626458,39.6017679 37.1035562,40.5821784 37.9109531,40.5245072 C38.2530927,40.4233171 38.6222993,40.5418793 38.8415566,40.8233489 C39.2553914,41.2204872 39.9088232,41.2204872 40.322658,40.8233489 C42.2153221,39.1246698 44.2547856,39.6777891 46.5642552,39.5755537 C48.7269254,39.4785613 50.8738671,38.8730136 52.9814875,38.4247511 C54.2921967,38.1416379 53.7416988,36.1205243 52.4231254,36.4010161 L52.4283682,36.4010161 Z" id="Path" fill="#FF8000"></path>
                            <path d="M38.8494208,41.0330624 C39.6725462,40.5874213 41.1064621,40.8259703 42.0501727,40.6948994 C43.1707308,40.5364188 44.2739424,40.2731225 45.3452957,39.9084739 C46.6166836,39.4785613 46.0714286,37.4548263 44.7869336,37.8847389 C43.5013793,38.3350067 42.1629466,38.6169675 40.804999,38.7235928 C39.7328389,38.7996139 38.7602926,38.6921357 37.7903678,39.2164194 C36.6028653,39.8586669 37.6592969,41.6700671 38.8389352,41.0278195 L38.8494208,41.0330624 Z" id="Path" fill="#FF8000"></path>
                            <path d="M46.7608616,29.3205649 C47.3328096,28.7204776 47.648711,27.9213222 47.6416582,27.0923593 C47.6416582,26.5132515 47.1721986,26.0437919 46.5930908,26.0437919 C46.0139831,26.0437919 45.5445235,26.5132515 45.5445235,27.0923593 C45.5445235,27.1552733 45.5445235,27.2208088 45.5445235,27.2837228 C45.5654948,27.165759 45.5654948,27.1683804 45.5445235,27.2837228 C45.5235521,27.3990652 45.4947165,27.4698435 45.4658809,27.5615932 C45.5235521,27.3754725 45.4291811,27.6271286 45.4082097,27.6585857 C45.3763295,27.714683 45.3413221,27.7689446 45.303353,27.8211136 C45.3688884,27.7346068 45.3610242,27.7372282 45.2823816,27.8211136 C44.8903365,28.2330249 44.8980708,28.8823574 45.2998161,29.2848137 C45.7015613,29.68727 46.3508791,29.6961525 46.763483,29.3048364 L46.7608616,29.3205649 Z" id="Path" fill="#FF8000"></path>
                        </g>
                        <g id="BAG" transform="translate(45.350539, 24.379191)" fill="#4C4C4C">
                            <path d="M5.55478561,81.6571835 L80.0030685,81.6571835 C81.5208697,81.6571835 81.5234912,79.2979069 80.0030685,79.2979069 L5.55478561,79.2979069 C4.03436293,79.2979069 4.03436293,81.6571835 5.55478561,81.6571835 Z" id="Path"></path>
                            <path d="M7.93241211,79.2507214 L2.45626905,55.2883357 C2.12072749,53.8098557 -0.16514936,54.4337533 0.183499289,55.9148547 L5.65702093,79.8772404 C5.99518391,81.3583418 8.27843934,80.7318228 7.93241211,79.2507214 L7.93241211,79.2507214 Z" id="Path"></path>
                            <path d="M0.85720382,55.8073765 C3.60445031,56.2897175 6.32286121,55.9305832 9.08321479,55.7785409 C11.8916277,55.6247511 14.7026621,55.5906726 17.5163178,55.6763056 C23.2190676,55.8304072 28.897159,56.48655 34.4847592,57.6371266 C35.968482,57.946454 36.6002439,55.6710628 35.1138996,55.3617354 C29.63948,54.2303413 24.0803287,53.5569299 18.4941069,53.3484861 C15.7521032,53.2436293 13.0100996,53.2479984 10.2680959,53.3615932 C7.38453566,53.4847998 4.36466165,54.0379191 1.48634424,53.5319854 C3.72497172e-14,53.2698435 -0.637004674,55.5452347 0.85720382,55.8073765 L0.85720382,55.8073765 Z" id="Path"></path>
                            <path d="M34.1623247,57.5060557 L39.7747815,58.5703516 C41.3895753,58.8770575 43.0567974,59.3226986 44.7109124,59.1365779 C46.3650274,58.9504572 47.9352571,58.3291811 49.5474294,57.9857752 C51.4033925,57.5968491 53.2853725,57.3445166 55.1782361,57.2308067 C56.6881731,57.1364357 56.6986588,54.7771591 55.1782361,54.8715302 C51.7520423,55.0891079 48.5670189,55.8886405 45.2404389,56.6540947 C43.6020524,57.0289575 42.0187157,56.6016663 40.403922,56.2949604 L34.7888437,55.2306645 C33.3051209,54.9501727 32.6681162,57.2229425 34.1623247,57.5060557 L34.1623247,57.5060557 Z" id="Path"></path>
                            <path d="M35.7823613,10.5957732 C40.0919732,10.6560658 44.2521642,10.6953871 48.5145905,11.4896769 C55.2726072,12.7453363 61.9047958,14.8083926 68.8332046,14.8608754 C70.3510059,14.8739281 70.3510059,12.5146515 68.8332046,12.5015444 C61.7920748,12.449116 55.070758,10.2340175 48.1895346,9.0412721 C44.0398293,8.32300345 39.9713879,8.29678927 35.7823613,8.23649665 C34.26456,8.2155253 34.2619386,10.5748019 35.7823613,10.5957732 L35.7823613,10.5957732 Z" id="Path"></path>
                            <path d="M26.457976,10.1946962 C29.5250356,10.6665515 32.6890876,10.5721805 35.7823613,10.5957732 C37.3001626,10.6088803 37.302784,8.24960374 35.7823613,8.23649665 C32.9145296,8.21290388 29.928734,8.35970331 27.084495,7.91930502 C25.6007722,7.69124162 24.9611461,9.96401138 26.457976,10.1946962 Z" id="Path"></path>
                            <path d="M25.7239789,8.72932331 C24.325889,15.5450112 23.2633408,22.4218655 22.5363341,29.3598862 C22.3764276,30.8672018 24.7383255,30.8567161 24.8956106,29.3598862 C25.6103841,22.6438122 26.6449705,15.9757976 27.99937,9.35584231 C28.3034546,7.87474091 26.0280634,7.24035765 25.7239789,8.72932331 L25.7239789,8.72932331 Z" id="Path"></path>
                            <path d="M86.8816704,50.6143467 L74.5190612,79.1878074 C73.9213778,80.5666734 75.952977,81.7699045 76.5559033,80.3779313 L88.9185125,51.8044706 C89.5161959,50.4256046 87.4819752,49.2223735 86.8816704,50.6143467 L86.8816704,50.6143467 Z" id="Path"></path>
                            <path d="M55.0497866,57.0342004 C59.0998781,57.5034343 63.1237553,58.009368 67.1921967,58.2898598 C68.7073765,58.3947165 68.7021337,56.03544 67.1921967,55.9305832 C63.1237553,55.6500914 59.0998781,55.1441577 55.0497866,54.6749238 C53.5450925,54.5019102 53.5581996,56.8638082 55.0497866,57.0342004 Z" id="Path"></path>
                            <path d="M66.3454786,57.7813046 C68.1647429,62.2377159 70.2304206,66.6941272 71.4021947,71.3733591 C71.7718147,72.8465962 74.0472059,72.2226986 73.6775859,70.7468401 C72.5058118,66.059744 70.4401341,61.6164397 68.6208697,57.1469214 C68.0572648,55.760191 65.7740093,56.3604958 66.3454786,57.7734404 L66.3454786,57.7813046 Z" id="Path"></path>
                            <path d="M89.4139606,23.1576102 C88.9997765,24.5915261 88.3653932,25.8969925 87.7152814,27.2417801 C87.0651697,28.5865678 89.1020118,29.8055273 89.7521236,28.4345255 C90.4782565,26.90886 91.2201179,25.4094087 91.6893518,23.7841292 C92.1087787,22.3213778 89.8333875,21.6869945 89.4139606,23.1576102 Z" id="Path"></path>
                            <path d="M87.2932331,28.049177 C87.6025958,35.6531289 87.4581614,43.2687637 86.860699,50.8555172 C86.7427352,52.3680756 89.1020118,52.3602113 89.2199756,50.8555172 C89.8174379,43.2687637 89.9618724,35.6531289 89.6525097,28.049177 C89.5895956,26.5366186 87.230319,26.5287543 87.2932331,28.049177 Z" id="Path"></path>
                            <path d="M80.8183296,11.0623857 C79.50063,15.6061776 78.0780736,20.1106482 76.5506604,24.5757976 C76.0578338,26.0175777 78.3358464,26.6362325 78.8260516,25.204938 C80.3517171,20.7327982 81.7742735,16.2274538 83.0937208,11.6889047 C83.5157692,10.2287746 81.240378,9.60487706 80.8183296,11.0623857 Z" id="Path"></path>
                            <path d="M74.330319,32.259175 L75.2976224,40.5743142 C75.4470433,41.8483235 75.7301565,43.0882544 75.3893721,44.338671 C75.0276163,45.6677301 74.6029466,46.9810608 74.2018695,48.3022556 C73.7640927,49.7597643 76.0368624,50.3810404 76.4772607,48.9287746 C76.8914448,47.5472871 77.337086,46.1736639 77.7171916,44.7843121 C78.0605974,43.5338955 77.8666125,42.3647429 77.7171916,41.0959764 L76.6895956,32.259175 C76.516582,30.7702093 74.154684,30.7518594 74.330319,32.259175 L74.330319,32.259175 Z" id="Path"></path>
                            <path d="M68.7519407,57.6109124 L72.1859988,54.2292827 C73.2686446,53.1623654 71.5988011,51.4925218 70.5161553,52.5594391 L67.0847186,55.9436903 C66.0020727,57.0106076 67.6692949,58.6778297 68.7519407,57.6109124 L68.7519407,57.6109124 Z" id="Path"></path>
                            <path d="M22.8063402,29.220951 C21.623347,30.5291361 20.5493528,31.931904 19.5951026,33.4152205 C18.9292623,34.4637878 17.6631173,36.0209104 17.9960374,37.3473481 C18.1795367,38.0813453 18.732656,38.7288356 19.1284901,39.357976 L20.7904694,42.0160943 L24.1170494,47.3244666 C24.9218248,48.6089616 26.9639098,47.4267019 26.1538915,46.1343426 L20.8848405,37.7169681 C20.7485267,37.4993904 20.3605568,37.0852063 20.3290998,36.8335501 C20.3605568,37.0720992 20.4863849,36.5714083 20.5912416,36.3616948 C20.9162975,35.7640114 21.2623247,35.1768137 21.6267019,34.6053444 C22.4722329,33.2910826 23.4234607,32.0479111 24.4709409,30.8881731 C25.480187,29.7609632 23.8182077,28.0858769 22.8010973,29.220951 L22.8063402,29.220951 Z" id="Path"></path>
                            <path d="M24.1353993,45.9246291 C22.730319,47.759622 20.7904694,49.0860597 18.9790693,50.4832758 C17.9803089,51.2539728 14.811014,53.1204227 15.8831742,54.7037594 C16.7298923,55.954176 18.7667344,54.7745377 17.9200163,53.5136354 L17.8466165,53.4035359 L17.8466165,54.5962812 C18.1769153,53.880634 19.2648039,53.2410079 19.8808372,52.7612884 C20.6305629,52.1609835 21.4065027,51.5947572 22.1640927,51.0075594 C23.6645959,49.8948016 25.012205,48.5894981 26.1722414,47.1252388 C27.0976021,45.9220077 25.0476529,44.7449909 24.1353993,45.9351148 L24.1353993,45.9246291 Z" id="Path"></path>
                            <path d="M69.4675879,14.7245072 C73.6225361,13.6444828 77.8561268,13.0205852 82.1080675,12.4124162 C83.6048974,12.2000813 82.9678927,9.92731152 81.478927,10.1396464 C77.2374721,10.7451941 72.9933957,11.3690916 68.8410689,12.449116 C67.3730746,12.8292217 67.9943507,15.1072343 69.4675879,14.7245072 L69.4675879,14.7245072 Z" id="Path"></path>
                            <path d="M81.5025198,12.0218248 C84.5276367,15.9172526 86.6903068,20.4103637 89.7180451,24.3031701 C90.6460272,25.5011583 92.3053851,23.8208291 91.3852672,22.635948 C88.3601504,18.7405202 86.1974802,14.2474091 83.1697419,10.3546027 C82.2417598,9.15661451 80.582402,10.8369437 81.5025198,12.0218248 Z" id="Path"></path>
                            <path d="M46.4646413,45.7752083 C48.5827474,45.614428 50.6999797,45.4484048 52.8163381,45.2771388 C54.3184109,45.1539321 54.331518,42.7946556 52.8163381,42.9178622 C50.6999797,43.0926235 48.5827474,43.2586466 46.4646413,43.4159317 C44.9625686,43.5312741 44.9494615,45.8905507 46.4646413,45.7752083 Z" id="Path"></path>
                            <path d="M25.2940662,47.1304816 C30.7011786,46.8438732 36.1074172,46.5118269 41.512782,46.1343426 C43.0174761,46.0294859 43.0305832,43.6702093 41.512782,43.775066 C36.1091648,44.1525503 30.7029262,44.4845966 25.2940662,44.771205 C23.7841292,44.852469 23.7736436,47.2117456 25.2940662,47.1304816 Z" id="Path"></path>
                            <path d="M60.4315586,44.8944117 L71.7036578,46.1343426 C73.2109734,46.3021134 73.1978663,43.9402154 71.7036578,43.775066 L60.4315586,42.5351351 C58.924243,42.3673644 58.9347287,44.7292623 60.4315586,44.8944117 Z" id="Path"></path>
                            <path d="M49.1227596,9.61011989 L48.7007112,5.4394432 C48.6299329,4.75001016 48.5093477,4.05009144 48.5067263,3.35541557 C48.5041049,2.66073969 48.7321683,2.52966877 49.38228,2.56899004 C52.0928267,2.69743954 54.8872587,3.01463117 57.4877058,3.77484251 C58.6568584,4.11562691 59.7971754,4.56126803 61.0056493,4.75001016 C61.7920748,4.87583824 63.5720179,4.48786832 64.0543589,5.14322292 C64.7149563,6.02664093 64.7359277,7.83541963 64.8407844,8.8708799 C64.9766257,10.2226227 65.0064262,11.5829263 64.9299126,12.9393213 C64.8512701,14.4571225 67.2131681,14.4518797 67.2891892,12.9393213 C67.3802478,11.1582144 67.2977209,9.37247281 67.0427759,7.60735623 C66.8487909,6.26781142 66.6757773,4.66874619 65.8185735,3.56250762 C64.8355416,2.29111969 63.6296891,2.54015444 62.2115017,2.51394026 C60.4787442,2.4772404 58.8246291,1.65936727 57.1626499,1.24779516 C55.4646212,0.854018124 53.7405543,0.582442549 52.0036984,0.435155456 C50.653668,0.301463117 48.8579963,-0.144178013 47.5761227,0.49544808 C46.4069701,1.0826458 46.1002642,2.33044097 46.1474497,3.54415769 C46.2260923,5.56527129 46.5537696,7.60997765 46.7582402,9.62322699 C46.9102825,11.1174355 49.2721805,11.133164 49.1175168,9.62322699 L49.1227596,9.61011989 Z" id="Path"></path>
                            <path d="M66.6207275,57.0394432 L62.4657793,62.3556797 C61.8156675,63.1892908 61.0633205,63.9888234 60.7802073,65.0321479 C60.4970941,66.0754725 60.3345661,67.1948181 60.1196098,68.2669783 L59.3698842,72.0234708 C59.2832732,72.3718412 59.4850316,72.7269359 59.8286324,72.8308677 C60.1771276,72.9231659 60.5352672,72.7190147 60.6334078,72.3721195 C61.0580776,70.251392 61.4775046,68.1280431 61.9047958,66.0073156 C61.9691287,65.5426515 62.116528,65.0933502 62.3399512,64.6808779 C62.6266404,64.2480908 62.9382408,63.8323319 63.2731762,63.4357041 L65.270697,60.8798212 L67.5487096,57.9674253 C67.7930887,57.7063649 67.7930887,57.3005036 67.5487096,57.0394432 C67.2908854,56.7870045 66.8785517,56.7870045 66.6207275,57.0394432 L66.6207275,57.0394432 Z" id="Path"></path>
                            <path d="M59.7237757,71.5647226 C56.3998171,72.3511481 52.9736232,72.4848405 49.5684007,72.4612477 C46.0504572,72.4376549 42.5298923,72.338041 39.0119488,72.2698842 L33.0351148,72.1545418 C32.1910181,72.1361918 32.1910181,73.446901 33.0351148,73.465251 L43.8222516,73.672343 C47.2825239,73.7404999 50.7559033,73.8846779 54.2109327,73.672343 C56.1851846,73.5611392 58.1462291,73.2804888 60.0724243,72.8334891 C60.8929283,72.6368827 60.5442796,71.3733591 59.7237757,71.5699655 L59.7237757,71.5647226 Z" id="Path"></path>
                            <path d="M33.029872,71.9500711 C27.197216,71.6250152 21.527088,73.4993294 15.7075391,73.4285511 C15.3020931,73.4285511 14.8957732,73.4128226 14.4885796,73.3813656 C14.1294452,73.3603942 13.6549685,73.2267019 13.3063199,73.3289372 C13.0987878,73.3959624 12.9337427,73.5549178 12.8589664,73.7597846 C12.78419,73.9646514 12.808033,74.1925509 12.9235928,74.3775046 C13.1464133,74.7523674 13.7440967,74.9017883 14.0429384,74.5269254 C14.2899353,74.2669046 14.2899353,73.8589641 14.0429384,73.5989433 C13.7860055,73.3468185 13.3745106,73.3468185 13.1175777,73.5989433 L13.093985,73.6277789 L13.557976,73.4364154 L13.5291404,73.4364154 L13.9931315,73.6277789 L14.1032311,73.8217639 L14.1032311,74.1704125 L14.1032311,74.1441983 L13.6471042,74.6003251 C13.5553546,74.6212965 13.7572038,74.6448893 13.751961,74.6422678 C13.8325209,74.6558652 13.9140544,74.6628788 13.9957529,74.6632392 L14.4204227,74.6973176 C14.7454786,74.718289 15.0705344,74.7340175 15.3955903,74.7418817 C16.0247307,74.7576102 16.6538712,74.7418817 17.2830116,74.7209104 C18.5675066,74.6632392 19.8467588,74.5295468 21.1207681,74.3643975 C23.6425726,74.0393416 26.1486486,73.591079 28.6809388,73.3682585 C30.123735,73.2315781 31.5744607,73.1982885 33.0220077,73.2686446 C33.863483,73.3158301 33.8608616,72.0051209 33.0220077,71.9579354 L33.029872,71.9500711 Z" id="Path"></path>
                            <path d="M1.29235928,55.3669783 C2.86577731,57.8468114 4.59777339,60.2223955 6.47752489,62.4788864 C7.37929283,63.5589108 8.3859175,64.5760211 9.21690713,65.7084739 C10.0046621,66.8536984 10.6350666,68.0995187 11.0912213,69.4125381 C11.7177403,71.0614103 12.3311522,72.7155253 12.9524284,74.3670189 C13.0563283,74.7093613 13.4096918,74.91079 13.7572038,74.8257671 C14.1035291,74.7252665 14.3069052,74.3673245 14.215952,74.0183702 L12.5408657,69.561959 C12.0349319,68.2145499 11.5211339,66.8487909 10.7451941,65.6298313 C9.96925422,64.4108718 8.93641536,63.3518187 7.99270473,62.250823 C7.04899411,61.1498273 6.12363341,59.9937818 5.24807966,58.8193863 C4.25543589,57.4842105 3.31347287,56.1140825 2.42219061,54.7090022 C1.97392806,53.9985978 0.849339565,54.6565739 1.29235928,55.3695997 L1.29235928,55.3669783 Z" id="Path"></path>
                            <path d="M7.75677708,79.8798618 C8.958138,76.2926398 10.4931405,72.8259389 12.3416379,69.5252591 C12.755822,68.7886405 11.6233692,68.1280431 11.2118065,68.8646617 C9.30923283,72.2649871 7.72947624,75.8361147 6.4932534,79.5312132 C6.23111156,80.3333672 7.49201382,80.676773 7.7593985,79.8798618 L7.75677708,79.8798618 Z" id="Path"></path>
                            <path d="M60.709429,67.3704532 C62.7360974,68.5522277 64.5557971,70.0575754 66.0964438,71.8268645 C66.9300549,72.7810608 67.6981305,73.7876854 68.5264987,74.7445031 C69.3408916,75.6703021 70.205514,76.5506767 71.1164601,77.3816501 C72.1650274,78.3384678 73.239809,79.2507214 74.3224548,80.1603536 C74.5824756,80.4073505 74.9904161,80.4073505 75.2504369,80.1603536 C75.5028756,79.9025293 75.5028756,79.4901957 75.2504369,79.2323715 C73.3184515,77.6097135 71.3786019,75.9791912 69.6956513,74.09177 C68.0127007,72.2043487 66.6181061,70.2330421 64.7149563,68.6130055 C63.6716935,67.7209567 62.5504712,66.924345 61.3647836,66.2327576 C60.6334078,65.8080878 59.9728104,66.9405405 60.7041861,67.3652103 L60.709429,67.3704532 Z" id="Path"></path>
                            <path d="M81.722719,38.4457224 C86.2708799,42.9781548 89.8805731,48.2839057 93.0262751,53.8596627 C94.5781548,56.6069092 96.0225564,59.4170697 97.4302581,62.2482016 C98.9244666,65.23924 100.762081,68.2774639 101.362386,71.6014225 C101.624528,73.0930096 103.910404,72.4612477 103.637777,70.9749035 C103.029608,67.6692949 101.239179,64.6415566 99.760699,61.6636253 C98.2560049,58.6332656 96.7146109,55.6212558 95.0421459,52.6747815 C91.8230441,46.9233896 88.0796586,41.4446251 83.3925625,36.7785003 C82.3151595,35.7037188 80.645316,37.3709409 81.722719,38.4457224 Z" id="Path"></path>
                            <path d="M102.104247,72.8754318 C103.626525,73.0640186 105.161729,73.1271452 106.694351,73.0641739 C108.206909,73.0012599 108.214773,70.6419833 106.694351,70.7048974 C105.161729,70.7678686 103.626525,70.704742 102.104247,70.5161553 C101.467242,70.4375127 100.932473,71.1138387 100.924609,71.6957935 C100.924609,72.3983337 101.475107,72.7967893 102.104247,72.8754318 Z" id="Path"></path>
                            <path d="M103.173786,72.4848405 C104.482747,72.0357041 105.804816,71.6311319 107.139992,71.2711238 C108.602743,70.8726682 107.981467,68.597277 106.510851,68.9957326 C105.177423,69.3574883 103.856228,69.7620606 102.547267,70.2094493 C101.118594,70.6970331 101.732006,72.9776671 103.173786,72.4848405 Z" id="Path"></path>
                            <path d="M101.973176,70.8988823 C101.34192,70.9248132 100.729504,71.1214025 100.201097,71.4677301 C99.6925422,71.8137574 99.4146718,72.5162975 99.7764276,73.0799025 C100.104105,73.5858362 100.845966,73.866328 101.391221,73.5045722 C101.477728,73.4442796 101.569478,73.3944727 101.653363,73.3394229 C101.847348,73.2214591 101.4253,73.4075798 101.653363,73.3394229 C101.729384,73.3158301 101.802784,73.2922374 101.881427,73.2738874 C101.932428,73.2615129 101.984057,73.2518872 102.03609,73.2450518 C101.852591,73.2660232 101.826377,73.2738874 101.957448,73.2607803 C102.57086,73.2214591 103.165922,72.7364966 103.137086,72.081142 C103.110872,71.4782158 102.612802,70.8595611 101.957448,70.9015038 L101.973176,70.8988823 Z" id="Path"></path>
                            <path d="M27.9469417,63.5956106 C18.0966048,67.0157113 11.5289995,76.3422384 11.6286121,86.7689494 C11.6443406,88.2867507 14.0036172,88.2919935 13.9878886,86.7689494 C13.8685746,77.3963514 19.7351123,68.9898265 28.5734607,65.8683804 C29.9995123,65.3729323 29.3861004,63.0922983 27.9469417,63.5956106 L27.9469417,63.5956106 Z" id="Path"></path>
                            <path d="M51.6131071,65.126519 C47.8802073,66.3585857 45.6493802,69.8057509 43.887787,73.1139809 C41.8266442,76.9967696 40.4209952,81.1933449 39.727596,85.5342613 C39.4890469,87.0206056 41.7618167,87.6602317 42.0029872,86.1634017 C42.5970441,82.3302569 43.7755304,78.6109083 45.4973379,75.1350945 C46.9731965,72.1912416 48.9051819,68.5055273 52.2396261,67.4019102 C53.6761634,66.9300549 53.0601301,64.6494208 51.6131071,65.126519 L51.6131071,65.126519 Z" id="Path"></path>
                        </g>
                        <g id="ASA1" transform="translate(101.711034, 28.049177)" fill="#4C4C4C">
                            <path d="M2.44054054,8.88922983 C2.875696,7.75415566 2.72103231,5.5102215 3.77746393,4.76836009 C4.93350945,3.9583418 7.44744971,5.32147937 8.82107295,5.29264377 C10.393924,5.27167242 11.8016257,4.50621825 13.1673847,3.84824223 C14.0272099,3.42619386 15.0233489,2.68957529 15.9618167,2.50345458 C17.3380614,2.24131274 17.1073765,3.84299939 16.8950417,4.77360293 C16.5568787,6.25208291 18.8322699,6.87073765 19.1704328,5.40012193 C19.6108311,3.47337939 19.4981101,0.343405812 16.9579557,0.0288356025 C15.8438529,-0.110099573 14.8136354,0.422048364 13.8410892,0.896525097 C12.53038,1.53090835 11.1934566,2.37500508 9.78313351,2.76559642 C7.40812843,3.42095103 5.02788051,1.33430197 2.68957529,2.59782565 C0.61079049,3.71717131 0.89128226,6.35431823 0.16514936,8.25222516 C-0.377484251,9.67041252 1.90052835,10.2838244 2.44054054,8.87874416 L2.44054054,8.88922983 Z" id="Path"></path>
                        </g>
                        <g id="MOUTH" transform="translate(90.963219, 38.796992)">
                            <path d="M0.844096728,1.5230441 C0.928441186,1.48880358 1.01637716,1.46418151 1.10623857,1.44964438 L0.930603536,1.47323715 C1.03592802,1.46013253 1.14247068,1.46013253 1.24779516,1.47323715 L1.07478155,1.44964438 C1.18660887,1.46479606 1.29592118,1.49476879 1.39983743,1.53877261 L1.24517375,1.47323715 C1.34244513,1.51535019 1.43475673,1.56809968 1.52042268,1.63052225 L1.38673034,1.52828693 C1.46572774,1.58934883 1.53702675,1.65976761 1.59906523,1.73800041 L1.49682991,1.60430807 C1.52867705,1.64684974 1.55757997,1.69151789 1.58333672,1.73800041 C1.67233284,1.8839129 1.81253493,1.99140117 1.97654948,2.03946352 C2.2340566,2.11074675 2.50905503,2.01856349 2.67157427,1.80648165 C2.83409351,1.5943998 2.85158801,1.30489015 2.71578947,1.07478155 C2.4826343,0.684794363 2.11696307,0.391699105 1.68557204,0.249034749 C1.49385313,0.184394892 1.29283228,0.151629378 1.09051006,0.152042268 C0.885392965,0.149350294 0.681646686,0.185828885 0.490205243,0.259520423 C0.32741974,0.309981789 0.187986258,0.416880792 0.0969924812,0.56098354 C0.00899514152,0.713333324 -0.0145932249,0.894491978 0.0314570209,1.06429587 C0.0778652222,1.22914426 0.185772953,1.36989347 0.332920138,1.45750864 C0.484153525,1.54875041 0.666676929,1.57251648 0.836232473,1.5230441 L0.844096728,1.5230441 Z" id="Path" fill="#4C4C4C"></path>
                            <path d="M14.6615932,4.25194066 C14.491201,4.385633 14.6432432,4.26766917 14.6904288,4.23883357 C14.7376143,4.20999797 14.7847998,4.1864052 14.8346068,4.16019102 C14.9289779,4.11038407 14.7087787,4.20737655 14.7821784,4.18116237 L14.860821,4.15232676 C14.9120451,4.13351022 14.9646248,4.11861265 15.0181061,4.10776265 C15.0704874,4.08951552 15.1252272,4.07892072 15.180634,4.07630563 C15.149177,4.07630563 15.0076204,4.09203414 15.1203414,4.07630563 L15.2016054,4.07630563 L15.3693761,4.07630563 C15.4349116,4.07630563 15.6053038,4.12086974 15.3929689,4.07630563 C15.5004471,4.10251981 15.6079252,4.11824832 15.712782,4.15232676 L15.775696,4.17591953 C15.8359886,4.19689088 15.888417,4.24669783 15.7416176,4.1575696 C15.7835603,4.18378378 15.8307458,4.20213371 15.8753099,4.22572648 L16.0142451,4.30961187 L16.082402,4.35941882 C15.9303597,4.26242634 16.001138,4.29388336 16.0378378,4.3279618 C16.0797081,4.36371289 16.1191188,4.40224785 16.1558017,4.44330421 L16.2108515,4.50359683 C16.2868726,4.58748222 16.1191018,4.37776875 16.1898801,4.47738265 C16.2799961,4.62064161 16.4186306,4.726711 16.5804714,4.77622434 C16.837607,4.84797172 17.112563,4.75657769 17.2755804,4.5451735 C17.4385978,4.33376932 17.4570911,4.0446125 17.3223329,3.81416379 C16.9439231,3.27239065 16.3605845,2.90875097 15.7075391,2.80753912 C15.3590397,2.75195688 15.0031267,2.76352405 14.6589718,2.84161756 C14.3153691,2.93167578 13.9958404,3.09636288 13.7231254,3.32395855 C13.5352,3.51140856 13.4789008,3.79370289 13.5805408,4.03890229 C13.6821808,4.2841017 13.9216862,4.44377911 14.1871164,4.44330421 C14.3587999,4.43307507 14.5221286,4.36571352 14.6511075,4.25194066 L14.6615932,4.25194066 Z" id="Path" fill="#4C4C4C"></path>
                            <path d="M5.9794554,8.30203211 C6.21470892,8.01623103 6.41860019,7.70599992 6.58762447,7.37667141 L6.65840276,7.27443609 C6.60335298,7.34521439 6.65840276,7.27443609 6.68461695,7.25084332 C6.71083113,7.22725056 6.73704532,7.20627921 6.76063808,7.18006503 C6.78423085,7.15385084 6.77898801,7.1617151 6.7344239,7.19841496 L6.78423085,7.16433652 C6.81159143,7.14452374 6.84159229,7.12864094 6.87335907,7.11715099 C6.72393822,7.15385084 6.88908758,7.11715099 6.89695184,7.11715099 C6.82879496,7.11715099 6.81568787,7.11715099 6.85500914,7.11715099 L6.91530177,7.11715099 C6.85500914,7.11715099 6.84190205,7.11715099 6.88122333,7.11715099 L6.94151595,7.13550091 C6.85763056,7.10928673 6.92840886,7.13550091 6.97035155,7.15909368 L7.02277992,7.19317212 C6.97035155,7.15647226 7.07520829,7.23511481 7.08831538,7.24560049 L7.16695794,7.3190002 C7.22879166,7.37693191 7.28742355,7.4381891 7.34259297,7.50249949 C7.34259297,7.51560658 7.44220687,7.62570616 7.36880715,7.52871368 C7.39502134,7.56279212 7.4186141,7.59687055 7.44220687,7.63357041 C7.53068697,7.76209718 7.60787026,7.89804502 7.67289169,8.03989027 C7.73318431,8.16833977 7.63881325,7.94027637 7.68599878,8.07134729 C7.69910587,8.11328998 7.71483438,8.15261126 7.72794148,8.19193253 C7.75415566,8.2731965 7.77512701,8.35708189 7.79347694,8.44096728 C7.87118371,8.71946638 8.15968902,8.88248361 8.43834586,8.80534444 C8.57258437,8.76858566 8.68669795,8.67995909 8.75553884,8.55899581 C8.82437973,8.43803254 8.84229783,8.29466057 8.80534444,8.16047551 C8.71442576,7.75447004 8.54233122,7.37104698 8.29941069,7.0332656 C8.0390046,6.63003797 7.66372537,6.31410947 7.22200772,6.12625483 C6.73064861,5.98466955 6.20255238,6.15585988 5.88770575,6.55878886 C5.74918896,6.72743203 5.62881393,6.91019121 5.52857143,7.10404389 C5.47876448,7.19579354 5.42895753,7.28754318 5.37390774,7.36618573 L5.29788661,7.47628531 C5.36866491,7.37929283 5.2533225,7.52084942 5.23759398,7.53657793 C5.10507319,7.66909871 5.05331793,7.86225195 5.1018239,8.04327871 C5.15032987,8.22430547 5.29172786,8.36570346 5.47275462,8.41420943 C5.65378137,8.4627154 5.84693462,8.41096013 5.9794554,8.27843934 L5.9794554,8.30203211 Z" id="Path" fill="#FF8000"></path>
                        </g>
                        <g id="Layer_11" transform="translate(98.041049, 3.669986)" fill="#FF8000">
                            <path d="M8.07134729,6.06334078 C10.2399394,6.626054 12.5070302,6.69592088 14.7061573,6.26781142 C15.7724618,6.07017026 16.809858,5.73992954 17.7941882,5.28477952 C18.7824629,4.81554562 19.4037391,3.8875635 18.9633408,2.79443203 C18.2450721,1.02235318 16.2056086,0.505933753 14.4885796,0.332920138 C12.1902026,0.066957876 9.86374651,0.18031394 7.60211339,0.668461695 C5.39225767,1.19274538 3.26366592,2.28325544 1.7511075,4.00814875 C1.59018209,4.16721041 1.52798965,4.40093359 1.58857956,4.61893924 C2.58209713,7.00442999 5.36342207,7.52871368 7.65716318,7.82231254 C9.11108843,8.00919959 10.5788424,8.06534798 12.0427962,7.99008332 C12.8108718,7.95076204 13.5737045,7.86949807 14.3339159,7.76201991 C15.0118236,7.7101278 15.6741197,7.53233018 16.2868726,7.23773623 C17.348547,6.64267425 17.718167,5.44730746 17.5032107,4.29912619 C17.249675,3.14231704 16.460097,2.17554645 15.3772404,1.69605771 C14.2211949,1.14555985 12.9340784,1.00400325 11.6705548,0.909632189 C10.4616068,0.817857888 9.24706655,0.82838098 8.03989027,0.94108921 C5.25856533,1.21633814 2.5480187,2.09975615 0.437776875,3.96620606 C0.275895836,4.12579858 0.213628612,4.36080713 0.275248933,4.57961796 C0.498069498,5.4813859 1.36051616,5.92702703 2.18364154,6.17606178 C3.25241639,6.49351421 4.33974612,6.74477317 5.4394432,6.92840886 C7.66065826,7.31917787 9.91897043,7.45724446 12.1712457,7.33997155 C13.2355416,7.27967893 14.2867303,7.04637269 14.9394635,6.1367405 C15.0549009,5.9400952 15.0549009,5.69638112 14.9394635,5.49973583 C14.1268238,4.00814875 12.2079455,4.02387726 10.7294656,4.0579557 C9.03078643,4.09465556 7.26657183,4.19951229 5.65439951,4.78671002 C4.72347748,5.1168188 3.86915835,5.63226395 3.14308067,6.30188986 C2.98775373,6.46101149 2.92751815,6.6900752 2.98447875,6.90502087 C3.04143936,7.11996655 3.20720758,7.28913925 3.42095103,7.35045722 C6.34745275,8.15159039 9.38136318,8.48947779 12.4124162,8.35183906 L12.0926031,7.18006503 C11.2548694,7.57225852 10.45314,8.0371563 9.6966267,8.56941679 C9.00195082,9.05700061 8.06348303,9.64157692 7.97959764,10.5748019 C7.95493483,10.9754527 8.08647546,11.3700746 8.34659622,11.6757976 C8.53533835,11.9169681 8.85515139,12.1424101 8.96525097,12.4333875 C9.19069295,13.0310709 8.33611055,13.7178825 7.94027637,14.0219671 C7.77502285,14.122925 7.66440528,14.2933148 7.63944556,14.4853519 C7.61448583,14.677389 7.67787162,14.8703947 7.81182686,15.0102418 L8.22338955,15.4086974 C8.80796586,15.969681 9.6966267,15.0810201 9.11467181,14.5174152 L8.70048771,14.1189596 L8.57465962,15.1072343 C9.24312132,14.5960577 9.93255436,13.977403 10.1763463,13.1385491 C10.2979297,12.7248055 10.2672394,12.2811916 10.0898395,11.8881325 C9.90518584,11.5540798 9.67195831,11.2492938 9.397785,10.9837431 C9.21690713,10.7740297 9.18020727,10.6665515 9.36108515,10.4411095 C9.63390885,10.1504833 9.94421531,9.8974777 10.2838244,9.68876245 C11.0551851,9.14257747 11.8736832,8.6662168 12.7296078,8.26533225 C13.2958342,8.00319041 13.0153424,7.06734404 12.4124162,7.09355822 C9.49659625,7.22790845 6.57771434,6.90506242 3.76173542,6.1367405 L4.03960577,7.18530786 C5.41585044,5.89557001 7.34259297,5.51284292 9.16447876,5.37915058 C10.1049006,5.29619361 11.0496632,5.27342825 11.9929892,5.3109937 C12.6798009,5.34769356 13.5029262,5.47352164 13.8594391,6.13149766 L13.8594391,5.50497866 C13.3639911,6.19965454 12.0690104,6.10266206 11.3350132,6.11839057 C10.0614751,6.14424487 8.78757167,6.08996171 7.52084942,5.95586263 C6.28480491,5.82345748 5.05882294,5.60978634 3.85086365,5.31623654 C3.29257349,5.19746485 2.74195079,5.04514633 2.20199147,4.86010973 C1.89266409,4.74476732 1.54663686,4.57437513 1.46537289,4.23883357 L1.30284495,4.85224548 C2.89142451,3.45502947 4.90205243,2.68957529 6.96510872,2.33830522 C8.0203387,2.16544033 9.08881903,2.08648858 10.1579963,2.10237757 C11.2339587,2.09119935 12.3087334,2.17718132 13.3692339,2.35927657 C14.2867303,2.5349116 15.3693761,2.86521032 15.9172526,3.6883357 C16.3157082,4.2860191 16.5332859,5.20613696 16.0535663,5.81692745 C15.7337533,6.22586873 15.1753912,6.34121114 14.6956716,6.44082504 C14.090124,6.55354603 13.4767121,6.62170291 12.8606787,6.67413127 C11.5456694,6.78771168 10.2235869,6.79384866 8.90757976,6.6924812 C7.61403823,6.62656714 6.33328173,6.40386515 5.09341597,6.02926235 C4.19164804,5.73304206 3.18502337,5.2113798 2.79705344,4.2860191 L2.63714692,4.89680959 C5.19040845,1.98703516 9.20642146,1.35003048 12.8868929,1.48896566 C13.7345157,1.49832886 14.5798473,1.57900366 15.4139403,1.73013615 C16.0902662,1.87431416 16.8059134,2.09713473 17.3197114,2.58209713 C17.5879829,2.80668011 17.7764817,3.11195628 17.8571022,3.45240805 C17.8964235,3.75649258 17.6421459,3.93212762 17.4062182,4.06844137 C16.5949922,4.48768502 15.7268764,4.7861826 14.829364,4.9544808 C12.7109104,5.43434265 10.5081,5.39747929 8.40688884,4.84700264 C7.62046332,4.64253201 7.28754318,5.85624873 8.07134729,6.06071937 L8.07134729,6.06334078 Z" id="Path"></path>
                        </g>
                        <g id="_SPEED_LINES" transform="translate(20.184922, 3.669986)" fill="#FF8000">
                            <path d="M19.5819955,1.9214997 L21.8128226,4.92302378 C22.1929283,5.43420037 22.8351758,5.69372079 23.4276163,5.34507214 C23.9309287,5.05147328 24.2323918,4.24669783 23.8496647,3.73289982 L21.6214591,0.731375737 C21.2413534,0.220199147 20.5991059,-0.0393212762 20.0066653,0.306705954 C19.503353,0.602926235 19.2018899,1.40770169 19.5819955,1.9214997 Z" id="Path"></path>
                            <path d="M5.70420646,22.9347897 L8.69524487,24.2848202 C9.27457834,24.546962 9.96401138,24.4525909 10.3100386,23.8627718 C10.6062589,23.356838 10.4699451,22.5127413 9.88536883,22.2479781 L6.89433042,20.8979476 C6.31499695,20.6358057 5.62556391,20.7301768 5.27953668,21.3199959 C4.98593782,21.8259297 5.11963016,22.6700264 5.70420646,22.9347897 Z" id="Path"></path>
                            <path d="M1.71440764,48.774111 C2.39714468,48.7070694 3.08578706,48.8125291 3.71717131,49.0808169 C4.31223329,49.3088803 5.012152,48.8186751 5.16943711,48.2550701 C5.35031498,47.5918512 4.9413737,47.0334891 4.34369031,46.8054257 C3.30241349,46.4268719 2.18154143,46.3212825 1.08788864,46.4987198 C0.453505385,46.5852266 0.110099573,47.3952449 0.262141841,47.9509856 C0.450883967,48.6325544 1.08002439,48.8606178 1.71440764,48.774111 L1.71440764,48.774111 Z" id="Path"></path>
                            <path d="M2.88356025,80.6426946 C3.60752104,80.2247289 4.41139133,79.9639176 5.24283682,79.8772404 C5.88792469,79.862023 6.40725773,79.34269 6.42247511,78.6976021 C6.42247511,78.1051616 5.88246291,77.4602926 5.24283682,77.5179638 C3.99462859,77.6222658 2.78334423,77.9932496 1.69081488,78.6058525 C0.38010567,79.3529567 1.55712254,81.3897988 2.88093883,80.6426946 L2.88356025,80.6426946 Z" id="Path"></path>
                        </g>
                    </g>
                </g>
            </g>
        </g>
    </g>
</svg>